<svg width="39" height="39" viewBox="0 0 39 39" fill="none" xmlns="http://www.w3.org/2000/svg">
<path d="M19.5178 0.800007V0.805502C19.5089 0.80535 19.5 0.80535 19.4911 0.805502C19.4664 0.804334 19.4416 0.804334 19.4169 0.805502C19.3919 0.808888 19.3671 0.813473 19.3427 0.819238C19.3175 0.825336 19.2928 0.832672 19.2684 0.841215C19.2423 0.848118 19.2165 0.856372 19.1913 0.86594L1.04328 8.4784C0.887087 8.52094 0.749639 8.61065 0.65165 8.73403C0.55366 8.85741 0.500437 9.00777 0.500001 9.16245V19.6375V30.0493C0.499728 30.1855 0.540396 30.3189 0.617201 30.4338C0.694006 30.5487 0.80374 30.6403 0.933439 30.6977L19.1734 38.7332C19.2539 38.7685 19.3404 38.7899 19.4288 38.7964C19.4347 38.7974 19.4406 38.7983 19.4466 38.7991C19.4525 38.7992 19.4584 38.7992 19.4644 38.7991C19.586 38.8048 19.7073 38.7822 19.8177 38.7332L38.0636 30.6922C38.1938 30.6352 38.3042 30.5438 38.3815 30.4289C38.4589 30.314 38.5 30.1803 38.5 30.0438V19.3463V9.14597C38.4994 8.97842 38.4369 8.8164 38.3235 8.68831C38.2101 8.56023 38.0529 8.47425 37.8795 8.44544H37.8766L19.8088 0.854951C19.7166 0.818361 19.6177 0.79968 19.5178 0.800007ZM19.5148 2.29173L35.6916 9.08279L28.8219 11.3959C28.7767 11.3643 28.7279 11.3375 28.6764 11.3163C27.2834 10.7312 17.019 6.42223 13.3458 4.87959L19.5148 2.29173ZM11.4903 5.65704C11.5237 5.6708 11.5443 5.67944 11.5764 5.69275C11.6089 5.70682 11.6217 5.71165 11.6536 5.72572C11.6909 5.74119 11.696 5.74315 11.7397 5.76143C14.3804 6.87046 24.0019 10.9122 26.7823 12.08L19.4792 14.5387L3.2936 9.09377L11.4903 5.65704ZM37.0008 10.1542V19.3463V29.5878L20.2511 36.9668V15.7914L37.0008 10.1542ZM1.99922 10.1707L18.737 15.8052V36.9668L1.99922 29.5933V19.6375V10.1707Z" fill="#322F2F"/>
</svg>
