<svg width="51" height="41" viewBox="0 0 51 41" fill="none" xmlns="http://www.w3.org/2000/svg">
<path d="M21.0953 10.8C21.0953 16.0148 16.5552 20.3 10.881 20.3C5.20673 20.3 0.666687 16.0148 0.666687 10.8C0.666687 5.58523 5.20673 1.3 10.881 1.3C16.5552 1.3 21.0953 5.58523 21.0953 10.8Z" stroke="#322F2F"/>
<path d="M49.6667 19.4667C49.6667 25.786 44.1672 30.9667 37.3095 30.9667C30.4518 30.9667 24.9524 25.786 24.9524 19.4667C24.9524 13.1473 30.4518 7.96666 37.3095 7.96666C44.1672 7.96666 49.6667 13.1473 49.6667 19.4667Z" stroke="#322F2F"/>
<path d="M24.6667 32.1333C24.6667 36.6117 20.7663 40.3 15.881 40.3C10.9957 40.3 7.09528 36.6117 7.09528 32.1333C7.09528 27.6549 10.9957 23.9667 15.881 23.9667C20.7663 23.9667 24.6667 27.6549 24.6667 32.1333Z" stroke="#322F2F"/>
</svg>
