<svg width="31" height="34" viewBox="0 0 31 34" fill="none" xmlns="http://www.w3.org/2000/svg">
<path d="M26.6762 33.8C26.0818 33.8 25.5849 33.3968 25.4311 32.86H9.62996H9.58236H9.56221H9.54208V32.8528C9.29039 32.8428 8.99114 32.8299 8.68336 32.6917C8.62053 32.6734 8.48985 32.6559 8.30618 32.5413L1.20756 28.1332C0.170795 27.4935 -0.139351 26.1305 0.495314 25.1037H0.497142L0.696717 24.7832C1.16909 24.0191 2.04459 23.6341 2.8957 23.7663C3.18104 23.8112 3.45829 23.9159 3.71231 24.0724H3.71414L9.65376 27.4958C9.70051 26.7932 9.96917 26.1974 10.4447 25.8253C10.9638 25.4191 11.6435 25.2577 12.3691 25.2577H14.9361C15.3599 25.2577 16.0448 25.0664 16.7359 24.8477C17.427 24.629 18.1216 24.3854 18.7573 24.3464H18.7719H21.3554C22.2936 24.3555 23.0946 24.6183 23.7485 24.8656C24.4023 25.1129 24.9294 25.3168 25.2041 25.3168H25.378V24.7027C25.378 24.0027 25.9595 23.4153 26.6762 23.4153H28.866C29.5827 23.4153 30.166 24.0027 30.166 24.7027V32.5144C30.166 33.2145 29.5827 33.8 28.866 33.8H26.6762ZM26.6762 32.8833H28.866C29.0687 32.8833 29.2285 32.7328 29.2285 32.5144V24.7027C29.2285 24.4843 29.0687 24.332 28.866 24.332H26.6762C26.4735 24.332 26.3155 24.4843 26.3155 24.7027V32.5144C26.3155 32.7328 26.4735 32.8833 26.6762 32.8833ZM9.5787 31.9433H9.58601H25.378V26.2335H25.2041C24.5853 26.2335 24.0337 25.9575 23.4097 25.7214C22.7868 25.4858 22.1102 25.2679 21.3536 25.2631H18.8085C18.398 25.2897 17.7196 25.4993 17.0234 25.7196C16.3243 25.9408 15.6073 26.1744 14.9361 26.1744H12.3691C11.7883 26.1744 11.3268 26.3097 11.0306 26.5415C10.7345 26.7731 10.5546 27.0979 10.5546 27.6748C10.5546 28.0141 10.6774 28.2008 10.7908 28.4035C10.8869 28.5299 10.981 28.6671 11.0947 28.7527C11.3448 28.9305 11.6643 29.0982 12.3691 29.0982H17.5836V30.015H12.3691C8.8615 28.8035 5.90732 26.4228 3.21978 24.8531H3.21429C3.0612 24.7586 2.90727 24.7025 2.74922 24.6776C2.26677 24.6024 1.78227 24.8043 1.49868 25.2631L1.29727 25.5818C0.925346 26.1855 1.11441 26.9927 1.70924 27.3597L8.8097 31.7696C8.81485 31.7696 8.8783 31.787 9.04223 31.8466L9.05871 31.8556L9.07336 31.8645C9.17515 31.9104 9.35394 31.935 9.5787 31.9433ZM15.1485 24.1763C11.2645 24.1763 8.1359 21.0874 8.1359 17.3009C8.1359 13.513 11.2645 10.4255 15.1485 10.4255C19.0315 10.4255 22.1977 13.5097 22.1977 17.3009C22.1979 17.3622 22.1853 17.4235 22.161 17.4799C22.1604 17.4799 22.1598 17.4799 22.1592 17.4799C22.0544 21.1815 18.9657 24.1745 15.1484 24.1745L15.1485 24.1763ZM15.1485 23.2596C18.5252 23.2596 21.2602 20.5925 21.2602 17.3009C21.2602 14.0077 18.5252 11.3422 15.1485 11.3422C11.7706 11.3422 9.07335 14.0044 9.07335 17.3009C9.07335 20.5958 11.7706 23.2596 15.1485 23.2596ZM13.7295 20.5112V18.667L12.8232 18.3716V17.4065L13.7295 17.702V16.8336L12.8232 16.5382V15.5731L13.7295 15.8685V13.1775H14.1982C15.1559 13.1775 15.9797 13.2826 16.6004 13.7647C17.2212 14.2469 17.5104 15.0569 17.5104 16.1675H16.573C16.573 15.2018 16.3579 14.7462 16.0163 14.4809C15.7629 14.2841 15.2127 14.2425 14.6669 14.1944V16.1729L16.573 16.7942V17.7593L14.6669 17.138V18.0063L16.573 18.6276V19.5927L14.6669 18.9714V20.5112H13.7295ZM1.46572 11.1847C0.749027 11.1847 0.167573 10.5974 0.167573 9.89734V2.08734C0.167573 1.38725 0.749027 0.799999 1.46572 0.799999H3.65738C4.24978 0.799999 4.74499 1.20367 4.9006 1.7382H20.7329C20.7351 1.73857 20.7653 1.73765 20.753 1.7382H20.7713H20.7915C21.0444 1.74828 21.3424 1.76293 21.6484 1.89934C21.7107 1.91768 21.8429 1.93515 22.0274 2.04974L29.126 6.45786C30.1627 7.09754 30.4729 8.4605 29.8382 9.48732H29.8364L29.6368 9.80781C29.1644 10.5722 28.2889 10.957 27.4378 10.8248V10.8338C27.1523 10.7889 26.8751 10.684 26.6212 10.5276L20.6797 7.10425C20.633 7.80673 20.3643 8.40265 19.8888 8.77475C19.3697 9.18085 18.69 9.34232 17.9644 9.34232H15.3974C14.9736 9.34232 14.2887 9.53361 13.5976 9.75234C12.9065 9.97107 12.2119 10.2146 11.5762 10.2537H11.5616H8.97809H8.97621C8.03801 10.2445 7.23703 9.97998 6.58315 9.73265C5.92927 9.48532 5.40411 9.28145 5.12937 9.28145H4.95543V9.89737C4.95543 10.5975 4.37397 11.1847 3.65728 11.1847L1.46572 11.1847ZM1.46572 10.268H3.65738C3.86007 10.268 4.01808 10.1158 4.01808 9.89734V2.08734C4.01808 1.8688 3.86007 1.71672 3.65738 1.71672H1.46572C1.26303 1.71672 1.10502 1.8688 1.10502 2.08734V9.89734C1.10502 10.1158 1.26303 10.268 1.46572 10.268ZM27.9432 9.92777C28.2963 9.88125 28.6222 9.68117 28.8349 9.33692L29.0363 9.01643C29.4082 8.41268 29.2192 7.60555 28.6243 7.2385L21.5239 2.83038C21.5187 2.83038 21.4553 2.81119 21.2913 2.7516L21.2749 2.74261L21.2602 2.73363C21.1566 2.68779 20.9784 2.6631 20.7549 2.65485H20.7493H4.95548V8.36463H5.12943C5.74825 8.36463 6.29793 8.64244 6.92193 8.87849C7.54541 9.11436 8.22246 9.33245 8.97993 9.33685H11.5176C11.9277 9.3121 12.6111 9.09979 13.3101 8.87849C14.0092 8.65729 14.7262 8.42372 15.3974 8.42372H17.9644C18.5452 8.42372 19.0068 8.28842 19.3029 8.05667C19.599 7.82502 19.7789 7.50011 19.7789 6.92331C19.7789 6.58321 19.6549 6.39585 19.5409 6.1928C19.4453 6.06758 19.3517 5.93052 19.2388 5.84545C18.9888 5.66724 18.67 5.50168 17.9644 5.50168H12.748V4.58497C14.5049 4.58432 16.2828 4.5756 18.0303 4.60645C18.6909 4.58354 19.26 4.79051 19.7496 5.13822C21.4909 6.88043 24.6964 8.35379 27.1137 9.74687H27.1193C27.2724 9.84138 27.4264 9.8974 27.5843 9.92233C27.7049 9.94113 27.8255 9.94325 27.9432 9.92777Z" fill="#322F2F"/>
</svg>
