<svg width="48" height="27" viewBox="0 0 48 27" fill="none" xmlns="http://www.w3.org/2000/svg">
<path d="M7.61424 0.400002C5.07798 0.400002 2.99998 2.00397 2.99998 3.9847V6.36911C1.28603 6.65154 -1.52588e-05 7.88085 -1.52588e-05 9.33058V15.3043V17.8387V21.4211C-1.52588e-05 22.7755 1.32407 23.8856 2.99998 24.011V25.8091C3.00003 26.1354 3.33579 26.4 3.74998 26.4H6.74998C7.16418 26.4 7.49994 26.1354 7.49998 25.8091V24.0364H40.5V25.8091C40.5 26.1354 40.8358 26.4 41.25 26.4H44.25C44.6642 26.4 44.9999 26.1354 45 25.8091V24.011C46.6759 23.8856 48 22.7755 48 21.4211V15.3043V9.33058C48 7.88085 46.7139 6.65154 45 6.36911V3.9847C45 2.00397 42.922 0.400002 40.3857 0.400002H7.61424ZM7.61424 1.59567H40.3857C42.1213 1.59567 43.4824 2.65669 43.4824 3.9847V6.37141C41.7772 6.65931 40.5 7.8858 40.5 9.33058V13.4H7.44006C7.27119 13.5741 7.49257 13.8773 7.49998 13.9447V9.33058C7.49998 7.8858 6.22273 6.65931 4.51756 6.37141V3.9847C4.51756 2.65669 5.87863 1.59567 7.61424 1.59567ZM3.74998 7.49091C4.99801 7.49091 5.99998 8.29235 5.99998 9.33058V22.8545H3.3076C2.29535 22.8545 1.49998 22.2275 1.49998 21.4211V17.8387V15.3043V9.33058C1.49998 8.29235 2.50196 7.49091 3.74998 7.49091ZM44.25 7.49091C45.498 7.49091 46.5 8.29235 46.5 9.33058V17.8387V21.4211C46.5 22.2275 45.7046 22.8545 44.6924 22.8545H42V9.33058C42 8.29235 43.0019 7.49091 44.25 7.49091ZM7.49998 14.5818H40.5V16.9593H7.49998V14.5818ZM7.49998 18.1411H40.5V22.8545H7.49998V18.1411ZM4.49998 24.0364H5.99998V25.2182H4.49998V24.0364ZM42 24.0364H43.5V25.2182H42V24.0364Z" fill="#322F2F"/>
</svg>
