<svg width="36" height="36" viewBox="0 0 36 36" fill="none" xmlns="http://www.w3.org/2000/svg">
<path d="M17.342 35.0807C16.6088 35.0807 15.6818 34.832 13.826 33.81C12.7726 33.2283 11.7552 32.5836 10.7795 31.8794L6.47122 33.1718C6.35384 33.2069 6.22985 33.214 6.10926 33.1924C5.98866 33.1708 5.87482 33.1211 5.77694 33.0474C3.45411 31.2989 1.64192 28.9602 0.528679 26.2745C0.481063 26.1598 0.461465 26.0354 0.471509 25.9117C0.481552 25.7879 0.520948 25.6683 0.58643 25.5628C0.651913 25.4573 0.741596 25.369 0.848046 25.3051C0.954496 25.2411 1.07465 25.2035 1.19854 25.1953C3.46049 25.0539 5.67645 24.4933 7.7335 23.542C8.44805 23.209 9.13989 22.8292 9.8045 22.4052C10.7241 21.7603 11.6966 21.1943 12.7117 20.7134C13.3379 20.4403 13.979 20.2027 14.632 20.002C14.6907 19.9864 14.7892 19.96 14.9162 19.9223L15.047 19.8819C15.1729 19.8426 15.2889 19.8063 15.5666 19.7342C15.8294 19.6659 16.1834 19.5793 16.6209 19.4901C17.6119 19.2525 18.6335 19.1693 19.6498 19.2432C20.1039 19.2765 20.5532 19.3573 20.9903 19.4843C21.5705 19.6579 22.0897 19.8692 22.5917 20.0737C23.1315 20.3046 23.6837 20.5052 24.2458 20.6745C24.7305 20.8133 25.2278 20.9032 25.7305 20.9427C26.2283 20.9907 26.8482 21.0502 27.1163 21.7075C27.1968 21.93 27.2255 22.1679 27.2003 22.4032C27.175 22.6384 27.0965 22.8648 26.9706 23.0652C26.6279 23.7318 26.07 24.2632 25.3874 24.573C24.7048 24.8828 23.9375 24.9529 23.2101 24.7719C22.9946 24.7387 22.7985 24.7009 22.6181 24.6594C22.8866 24.8523 23.1681 25.0266 23.4603 25.1812C24.5669 25.7642 25.8038 26.0553 27.0542 26.027L29.4128 26.0266C29.6062 26.0265 29.7928 26.0983 29.9364 26.228C30.08 26.3577 30.1703 26.536 30.1898 26.7285C30.2676 27.3598 30.1576 28 29.8736 28.5691C29.1309 30.008 27.2723 30.7393 25.1769 30.4426C23.5362 31.7182 21.8814 32.9171 20.2541 34.0085C19.463 34.6169 18.5149 34.9872 17.5208 35.0759C17.4621 35.0788 17.4026 35.0807 17.342 35.0807ZM10.9272 30.2383C11.0948 30.2382 11.2579 30.2921 11.3926 30.392C12.408 31.1455 13.4728 31.8301 14.5797 32.4412C16.6103 33.5597 17.1695 33.5292 17.4373 33.5154C18.1497 33.4389 18.8252 33.1596 19.3836 32.7105C21.0693 31.5802 22.7855 30.3317 24.485 29.0004C24.573 28.9311 24.675 28.8817 24.7839 28.8555C24.8928 28.8293 25.006 28.8269 25.1159 28.8486C26.6185 29.1404 28.0361 28.7219 28.4847 27.8533C28.528 27.769 28.5625 27.6804 28.5877 27.5889H27.0728C25.6139 27.6214 24.1695 27.2932 22.8678 26.6337C21.566 25.9741 20.4472 25.0034 19.6105 23.8078C19.2761 23.7852 18.9405 23.7855 18.6061 23.8086C18.465 23.8185 18.3482 23.8307 18.2708 23.8395C18.0652 23.8629 17.8588 23.8038 17.6967 23.6752C17.5347 23.5466 17.4303 23.3589 17.4065 23.1534C17.3826 22.9479 17.4413 22.7413 17.5696 22.579C17.6978 22.4167 17.8853 22.3119 18.0907 22.2877C18.1842 22.2766 18.3254 22.2621 18.4982 22.2499C19.0435 22.2128 19.5911 22.2251 20.1343 22.2865L20.1491 22.2884C20.7253 22.3619 21.2877 22.5191 21.8184 22.755C22.3386 22.9825 22.8862 23.1414 23.4473 23.2276C23.7265 23.2989 24.0164 23.3181 24.3026 23.2845C24.7782 23.1622 25.1982 22.8818 25.4936 22.4895C24.9255 22.4392 24.3635 22.3344 23.8154 22.1767C23.1994 21.992 22.5943 21.7731 22.0027 21.5209C21.5133 21.3214 21.0509 21.1334 20.5424 20.9812C20.2091 20.885 19.8665 20.8243 19.5205 20.8003C18.6519 20.741 17.7793 20.8155 16.9333 21.0212C16.529 21.1036 16.2017 21.1833 15.9587 21.2463C15.7206 21.3081 15.6211 21.3394 15.5135 21.3729L15.364 21.4191C15.2152 21.4633 15.1007 21.4942 15.0538 21.5064C14.4764 21.6866 13.909 21.8973 13.354 22.1378C12.4205 22.5836 11.5255 23.1061 10.6784 23.6999C9.94548 24.1699 9.18198 24.5903 8.39297 24.9584C6.5034 25.8347 4.48684 26.4058 2.41839 26.6506C3.37602 28.5569 4.73706 30.2321 6.40703 31.5597L10.7029 30.2711C10.7756 30.2493 10.8512 30.2382 10.9272 30.2383V30.2383Z" fill="#322F2F"/>
<path d="M34.8438 27.5375H25.9296C25.7224 27.5375 25.5237 27.4552 25.3772 27.3087C25.2307 27.1622 25.1484 26.9634 25.1484 26.7562C25.1484 26.549 25.2307 26.3503 25.3772 26.2038C25.5237 26.0573 25.7224 25.975 25.9296 25.975H34.0625V1.75625H8.2813V24.5063C8.2813 24.7135 8.19899 24.9123 8.05247 25.0588C7.90596 25.2053 7.70725 25.2876 7.50005 25.2876C7.29285 25.2876 7.09413 25.2053 6.94762 25.0588C6.80111 24.9123 6.7188 24.7135 6.7188 24.5063V0.974998C6.7188 0.767798 6.80111 0.569084 6.94762 0.422571C7.09413 0.276059 7.29285 0.193748 7.50005 0.193748H34.8438C35.051 0.193748 35.2497 0.276059 35.3962 0.422571C35.5427 0.569084 35.625 0.767798 35.625 0.974998V26.7562C35.625 26.9634 35.5427 27.1622 35.3962 27.3087C35.2497 27.4552 35.051 27.5375 34.8438 27.5375Z" fill="#322F2F"/>
<path d="M24.2969 8.00625H18.0469C17.8397 8.00625 17.641 7.92394 17.4945 7.77743C17.348 7.63091 17.2657 7.4322 17.2657 7.225V0.974999C17.2657 0.767798 17.348 0.569084 17.4945 0.422571C17.641 0.276059 17.8397 0.193748 18.0469 0.193748H24.2969C24.5041 0.193748 24.7028 0.276059 24.8493 0.422571C24.9959 0.569084 25.0782 0.767798 25.0782 0.974999V7.225C25.0782 7.4322 24.9959 7.63091 24.8493 7.77743C24.7028 7.92394 24.5041 8.00625 24.2969 8.00625ZM18.8282 6.44375H23.5157V1.75625H18.8282V6.44375Z" fill="#322F2F"/>
</svg>
