<svg width="31" height="34" viewBox="0 0 31 34" fill="none" xmlns="http://www.w3.org/2000/svg">
    <path d="M25.5104 0.600006H1.13542C0.876553 0.600006 0.666668 0.81109 0.666668 1.07143V29.3572C0.666668 31.6966 2.55929 33.6 4.88542 33.6H26.4479C28.774 33.6 30.6667 31.6966 30.6667 29.3572C30.6667 27.0177 28.774 25.1143 26.4479 25.1143H25.9792V1.07143C25.9792 0.81109 25.7693 0.600006 25.5104 0.600006ZM22.2292 1.54286H25.0417V4.37143H22.2292V1.54286ZM22.2292 5.31429H25.0417V12.8571H22.2292V5.31429ZM22.2292 13.8H25.0417V21.3429H22.2292V13.8ZM22.2292 22.2857H25.0417V25.1143H22.2292V22.2857ZM18.0104 1.54286H21.2917V8.61429H18.0104V1.54286ZM18.0104 9.55715H21.2917V17.1H18.0104V9.55715ZM18.0104 18.0429H21.2917V25.1143H18.0104V18.0429ZM13.7917 1.54286H17.0729V4.37143H13.7917V1.54286ZM13.7917 5.31429H17.0729V12.8571H13.7917V5.31429ZM13.7917 13.8H17.0729V21.3429H13.7917V13.8ZM13.7917 22.2857H17.0729V25.1143H13.7917V22.2857ZM9.57292 1.54286H12.8542V8.61429H9.57292V1.54286ZM9.57292 9.55715H12.8542V17.1H9.57292V9.55715ZM9.57292 18.0429H12.8542V25.1143H9.57292V18.0429ZM5.35417 1.54286H8.63542V4.37143H5.35417V1.54286ZM5.35417 5.31429H8.63542V12.8571H5.35417V5.31429ZM5.35417 13.8H8.63542V21.3429H5.35417V13.8ZM5.35417 22.2857H8.63542V25.1143H5.35417V22.2857ZM1.60417 1.54286H4.41667V8.61429H1.60417V1.54286ZM1.60417 9.55715H4.41667V17.1H1.60417V9.55715ZM4.88542 32.6572C3.07611 32.6572 1.60417 31.1768 1.60417 29.3572V18.0429H4.41667V25.5857C4.41667 25.8461 4.62655 26.0571 4.88542 26.0571C6.69473 26.0571 8.16667 27.5375 8.16667 29.3572C8.16667 31.1768 6.69473 32.6572 4.88542 32.6572ZM26.4479 26.0571C28.2572 26.0571 29.7292 27.5375 29.7292 29.3572C29.7292 31.1768 28.2572 32.6572 26.4479 32.6572H7.53427C8.49122 31.8786 9.10417 30.6886 9.10417 29.3572C9.10417 28.0257 8.49122 26.8357 7.53427 26.0571H26.4479Z" fill="#322F2F" />
</svg>
