<svg width="22" height="21" viewBox="0 0 22 21" fill="none" xmlns="http://www.w3.org/2000/svg">
<path d="M18.1198 19.0841L14.6962 13.8579C14.6962 13.8579 13.6636 11.9183 14.4244 10.0326C15.457 7.50029 17.5764 7.39253 18.8262 7.7158C19.8588 7.98519 21.163 8.84724 21.4347 10.8407C21.5434 11.7028 21.326 12.9959 20.6739 14.2351C19.6414 16.2285 18.1198 19.0841 18.1198 19.0841Z" stroke="black" stroke-miterlimit="10"/>
<path d="M3.92712 9.38104L1.40603 5.57195C1.40603 5.57195 0.645706 4.15826 1.20595 2.78384C1.96627 0.938196 3.52694 0.859658 4.44734 1.09527C5.20766 1.29162 6.16808 1.91992 6.36816 3.37288C6.4482 4.00118 6.28813 4.94364 5.80792 5.84683C5.04759 7.29978 3.92712 9.38104 3.92712 9.38104Z" stroke="black" stroke-miterlimit="10"/>
<path d="M2.19727 9.38604C2.19727 9.38604 6.273 9.11665 8.44672 9.70931C10.6204 10.302 11.1639 12.4032 11.1639 13.4808C11.1639 14.5583 11.1639 16.7135 11.7073 17.791C12.2507 18.8686 13.3376 19.9462 14.9679 19.9462C16.5982 19.9462 20.4022 20 20.4022 20" stroke="black" stroke-width="1.22" stroke-miterlimit="10" stroke-linecap="round" stroke-dasharray="3 3"/>
</svg>
