<svg width="17" height="17" viewBox="0 0 17 17" fill="none" xmlns="http://www.w3.org/2000/svg">
<path d="M9.03125 4.78125H7.96875V7.96875H4.78125V9.03125H7.96875V12.2188H9.03125V9.03125H12.2188V7.96875H9.03125V4.78125Z" fill="black"/>
<path d="M8.5 1.0625C4.39291 1.0625 1.0625 4.39291 1.0625 8.5C1.0625 12.6071 4.39291 15.9375 8.5 15.9375C12.6071 15.9375 15.9375 12.6071 15.9375 8.5C15.9375 4.39291 12.6071 1.0625 8.5 1.0625ZM8.5 14.875C4.98472 14.875 2.125 12.0153 2.125 8.5C2.125 4.98472 4.98472 2.125 8.5 2.125C12.0153 2.125 14.875 4.98472 14.875 8.5C14.875 12.0153 12.0153 14.875 8.5 14.875Z" fill="black"/>
</svg>
