<svg width="20" height="9" viewBox="0 0 20 9" fill="none" xmlns="http://www.w3.org/2000/svg">
<path d="M19.1468 1.89053L12.1874 0.148459C11.0414 -0.136905 9.81979 -0.00779333 8.77457 0.509152L5.71309 2.04402L1.25471 2.81145C0.923381 2.81144 0.605503 2.93167 0.370439 3.14589C0.135375 3.36012 0.00220883 3.65095 0 3.95492L0 6.25722C0 6.56252 0.132192 6.85532 0.367495 7.0712C0.602798 7.28708 0.921937 7.40836 1.25471 7.40836H2.09118C2.17339 7.85347 2.42471 8.25749 2.80059 8.54883C3.17648 8.84017 3.65265 9 4.14471 9C4.63677 9 5.11294 8.84017 5.48883 8.54883C5.86471 8.25749 6.11603 7.85347 6.19824 7.40836H13.8018C13.884 7.85347 14.1353 8.25749 14.5112 8.54883C14.8871 8.84017 15.3632 9 15.8553 9C16.3474 9 16.8235 8.84017 17.1994 8.54883C17.5753 8.25749 17.8266 7.85347 17.9088 7.40836H18.7453C19.0781 7.40836 19.3972 7.28708 19.6325 7.0712C19.8678 6.85532 20 6.56252 20 6.25722V2.96493C19.9963 2.72689 19.9123 2.49574 19.7595 2.30332C19.6067 2.11091 19.3927 1.96669 19.1468 1.89053ZM15.0565 1.66797V2.03634H14.4709L14.1447 1.43007L15.0565 1.66797ZM9.20117 1.19217C10.0059 0.798207 10.9384 0.683763 11.8277 0.869845H11.995H12.1372L13.0908 1.10775L13.5592 1.97495H7.52823L9.20117 1.19217ZM4.18235 8.22952C3.93419 8.22952 3.69161 8.162 3.48527 8.03551C3.27894 7.90902 3.11812 7.72924 3.02315 7.51889C2.92819 7.30855 2.90334 7.07709 2.95175 6.85379C3.00017 6.63049 3.11967 6.42537 3.29514 6.26438C3.47061 6.10339 3.69418 5.99376 3.93757 5.94934C4.18096 5.90492 4.43324 5.92772 4.66251 6.01485C4.89177 6.10197 5.08773 6.24952 5.2256 6.43882C5.36347 6.62813 5.43706 6.85069 5.43706 7.07837C5.43706 7.38367 5.30486 7.67647 5.06956 7.89235C4.83426 8.10823 4.51512 8.22952 4.18235 8.22952ZM15.8929 8.22952C15.6448 8.22952 15.4022 8.162 15.1959 8.03551C14.9895 7.90902 14.8287 7.72924 14.7337 7.51889C14.6388 7.30855 14.6139 7.07709 14.6623 6.85379C14.7107 6.63049 14.8302 6.42537 15.0057 6.26438C15.1812 6.10339 15.4048 5.99376 15.6482 5.94934C15.8915 5.90492 16.1438 5.92772 16.3731 6.01485C16.6024 6.10197 16.7983 6.24952 16.9362 6.43882C17.074 6.62813 17.1476 6.85069 17.1476 7.07837C17.1476 7.38367 17.0154 7.67647 16.7801 7.89235C16.5448 8.10823 16.2257 8.22952 15.8929 8.22952ZM19.2388 4.33864H18.8206C18.7097 4.33864 18.6033 4.37906 18.5248 4.45102C18.4464 4.52298 18.4023 4.62058 18.4023 4.72235C18.4023 4.82412 18.4464 4.92172 18.5248 4.99368C18.6033 5.06564 18.7097 5.10607 18.8206 5.10607H19.2388V6.25722C19.2388 6.35898 19.1947 6.45658 19.1163 6.52854C19.0379 6.60051 18.9315 6.64093 18.8206 6.64093H17.9256C17.8188 6.2208 17.5603 5.84616 17.192 5.57796C16.8237 5.30977 16.3673 5.1638 15.8971 5.1638C15.4269 5.1638 14.9705 5.30977 14.6022 5.57796C14.234 5.84616 13.9754 6.2208 13.8687 6.64093H6.21497C6.10824 6.2208 5.84969 5.84616 5.4814 5.57796C5.11311 5.30977 4.65674 5.1638 4.18653 5.1638C3.71633 5.1638 3.25996 5.30977 2.89166 5.57796C2.52337 5.84616 2.26483 6.2208 2.15809 6.64093H1.25471C1.14378 6.64093 1.0374 6.60051 0.958968 6.52854C0.880534 6.45658 0.83647 6.35898 0.83647 6.25722V5.10607H1.25471C1.36563 5.10607 1.47201 5.06564 1.55044 4.99368C1.62888 4.92172 1.67294 4.82412 1.67294 4.72235C1.67294 4.62058 1.62888 4.52298 1.55044 4.45102C1.47201 4.37906 1.36563 4.33864 1.25471 4.33864H0.83647V3.95492C0.839587 3.89908 0.854989 3.84439 0.88175 3.79415C0.908511 3.74391 0.946077 3.69916 0.992186 3.66259C1.0383 3.62603 1.09199 3.5984 1.15005 3.58137C1.2081 3.56435 1.26931 3.55828 1.32999 3.56353L5.85529 2.80377H15.4747C15.5856 2.80377 15.692 2.76335 15.7704 2.69139C15.8489 2.61943 15.8929 2.52183 15.8929 2.42006V1.87518L18.9293 2.64261C19.0101 2.66189 19.0827 2.70288 19.1378 2.76032C19.193 2.81775 19.2282 2.88901 19.2388 2.96493V4.33864ZM12.9653 5.10607H7.11C6.99907 5.10607 6.89269 5.1465 6.81426 5.21846C6.73582 5.29042 6.69176 5.38802 6.69176 5.48978C6.69176 5.59155 6.73582 5.68915 6.81426 5.76111C6.89269 5.83307 6.99907 5.8735 7.11 5.8735H12.9653C13.0762 5.8735 13.1826 5.83307 13.261 5.76111C13.3395 5.68915 13.3835 5.59155 13.3835 5.48978C13.3835 5.38802 13.3395 5.29042 13.261 5.21846C13.1826 5.1465 13.0762 5.10607 12.9653 5.10607Z" fill="black"/>
</svg>
