<svg width="16" height="16" viewBox="0 0 16 16" fill="none" xmlns="http://www.w3.org/2000/svg">
<path d="M0.0393333 8.80369L1.463 9.27444C1.52167 9.5775 1.60133 9.87588 1.701 10.1656L0.701667 11.2868L0.799 11.4875C0.9683 11.8365 1.16282 12.1727 1.381 12.4934L1.50633 12.6777L2.97 12.373C3.173 12.6064 3.39267 12.8258 3.626 13.0291L3.32133 14.4927L3.50533 14.6181C3.82609 14.8364 4.16231 15.0311 4.51133 15.2005L4.712 15.2979L5.833 14.2984C6.12408 14.3984 6.42181 14.478 6.724 14.5364L7.195 15.9603L7.41733 15.9763C7.61 15.9907 7.804 16 8 16C8.196 16 8.39 15.9907 8.58267 15.9767L8.805 15.9607L9.27567 14.5367C9.57786 14.4783 9.87559 14.3987 10.1667 14.2987L11.2877 15.2982L11.4883 15.2009C11.8373 15.0315 12.1734 14.837 12.494 14.6187L12.6783 14.4934L12.3737 13.0295C12.607 12.8264 12.8263 12.6067 13.0297 12.3733L14.493 12.6781L14.6183 12.494C14.8365 12.1732 15.0311 11.8369 15.2007 11.4878L15.298 11.2871L14.2987 10.1656C14.3987 9.87447 14.4782 9.57669 14.5367 9.27444L15.9603 8.80336L15.9763 8.58098C15.9907 8.38861 16 8.19458 16 7.99854C16 7.80251 15.9907 7.60847 15.9767 7.41577L15.9607 7.19339L14.537 6.72264C14.4786 6.4204 14.399 6.12261 14.299 5.83148L15.2983 4.71028L15.201 4.50957C15.0317 4.16059 14.8372 3.82441 14.619 3.50372L14.4937 3.31935L13.03 3.62408C12.8267 3.39054 12.6075 3.17132 12.374 2.96796L12.6787 1.50436L12.4947 1.379C12.1739 1.16069 11.8377 0.966024 11.4887 0.796561L11.288 0.69921L10.167 1.69873C9.87592 1.59867 9.57819 1.51913 9.276 1.46068L8.805 0.0367561L8.58267 0.0207532C8.19483 -0.00691773 7.80551 -0.00691773 7.41767 0.0207532L7.19533 0.0367561L6.72467 1.46068C6.42248 1.51913 6.12475 1.59867 5.83367 1.69873L4.71267 0.698877L4.512 0.796228C4.16305 0.965639 3.82694 1.1603 3.50633 1.37867L3.322 1.50402L3.62667 2.96796C3.39333 3.17099 3.174 3.3907 2.97067 3.62408L1.50733 3.31935L1.382 3.50339C1.16372 3.8242 0.969099 4.16048 0.799667 4.50957L0.702333 4.71028L1.70167 5.83148C1.60163 6.12261 1.52211 6.4204 1.46367 6.72264L0.04 7.19373L0.024 7.4161C0.00933334 7.60847 0 7.80251 0 7.99854C0 8.19458 0.00933335 8.38861 0.0233334 8.58131L0.0393333 8.80369ZM0.674667 7.68582L2.053 7.22973L2.08567 7.03003C2.14967 6.63429 2.25333 6.24589 2.39367 5.87615L2.46533 5.68712L1.499 4.60292C1.59533 4.41922 1.69967 4.23886 1.811 4.06416L3.22667 4.35888L3.35467 4.20252C3.60903 3.89188 3.89365 3.60731 4.20433 3.35303L4.36067 3.225L4.066 1.80875C4.24114 1.69728 4.42085 1.59317 4.60467 1.49669L5.68867 2.46353L5.87767 2.39185C6.25099 2.25059 6.63762 2.14739 7.03167 2.0838L7.23133 2.05112L7.687 0.672539C7.89433 0.662537 8.10533 0.662537 8.31267 0.672539L8.76867 2.05112L8.96833 2.0838C9.364 2.14781 9.75233 2.25149 10.122 2.39185L10.311 2.46353L11.395 1.49702C11.5787 1.59337 11.759 1.69773 11.9337 1.80908L11.639 3.225L11.7953 3.35303C12.1053 3.60707 12.3913 3.89279 12.6447 4.20285L12.7727 4.35921L14.1887 4.06449C14.3 4.23919 14.4043 4.41922 14.5007 4.60326L13.5343 5.68745L13.606 5.87649C13.7463 6.24689 13.85 6.63529 13.914 7.0307L13.9467 7.2304L15.325 7.68615C15.3359 7.89438 15.336 8.10303 15.3253 8.31126L13.947 8.76735L13.9143 8.96705C13.8508 9.36107 13.7476 9.74766 13.6063 10.1209L13.5347 10.31L14.501 11.3942C14.4047 11.5781 14.3006 11.7578 14.189 11.9329L12.7733 11.6382L12.6453 11.7946C12.391 12.1052 12.1064 12.3898 11.7957 12.6441L11.6393 12.7721L11.934 14.1883C11.7593 14.2997 11.5793 14.404 11.3953 14.5004L10.3113 13.5339L10.1223 13.6056C9.74898 13.7467 9.36237 13.8499 8.96833 13.9136L8.76867 13.9463L8.313 15.3249C8.10567 15.3349 7.89467 15.3349 7.68733 15.3249L7.23133 13.9463L7.03167 13.9136C6.63772 13.8501 6.2512 13.7469 5.878 13.6056L5.689 13.5339L4.605 14.5004C4.42114 14.404 4.24143 14.2999 4.06633 14.1883L4.361 12.7724L4.20467 12.6444C3.89408 12.39 3.60957 12.1053 3.35533 11.7946L3.22733 11.6382L1.81133 11.9329C1.69974 11.7578 1.59565 11.5781 1.49933 11.3942L2.46567 10.31L2.394 10.1209C2.25285 9.74751 2.14966 9.36082 2.086 8.96672L2.05333 8.76702L0.675 8.31126C0.664157 8.10293 0.664046 7.89417 0.674667 7.68582Z" fill="black"/>
<path d="M7.99992 12.666C10.5733 12.666 12.6666 10.5723 12.6666 7.99851C12.6666 5.42471 10.5733 3.33099 7.99992 3.33099C5.42659 3.33099 3.33325 5.42471 3.33325 7.99851C3.33325 10.5723 5.42659 12.666 7.99992 12.666ZM7.99992 3.99778C10.2056 3.99778 11.9999 5.79244 11.9999 7.99851C11.9999 10.2046 10.2056 11.9992 7.99992 11.9992C5.79425 11.9992 3.99992 10.2046 3.99992 7.99851C3.99992 5.79244 5.79425 3.99778 7.99992 3.99778Z" fill="black"/>
</svg>
