<svg width="17" height="17" viewBox="0 0 17 17" fill="none" xmlns="http://www.w3.org/2000/svg">
<path d="M8.50797 1.88699e-06V0.0024599C8.50399 0.00239226 8.5 0.00239226 8.49602 0.0024599C8.48495 0.00193765 8.47387 0.00193765 8.46281 0.0024599C8.45164 0.00397494 8.44056 0.00602586 8.42961 0.00860493C8.41837 0.0113331 8.40729 0.0146149 8.39641 0.018437C8.38469 0.0215252 8.37317 0.0252177 8.36188 0.029498L0.243047 3.43507C0.17317 3.4541 0.111681 3.49424 0.0678433 3.54943C0.0240059 3.60463 0.00019567 3.6719 6.11702e-07 3.7411V8.4273V13.0852C-0.000121603 13.1462 0.0180718 13.2058 0.052432 13.2572C0.0867922 13.3086 0.135884 13.3496 0.193907 13.3753L8.35391 16.9701C8.38993 16.9859 8.4286 16.9955 8.46813 16.9984C8.47078 16.9988 8.47343 16.9992 8.47609 16.9996C8.47875 16.9996 8.48141 16.9996 8.48406 16.9996C8.53848 17.0022 8.59273 16.992 8.64211 16.9701L16.8048 13.3728C16.863 13.3473 16.9124 13.3064 16.947 13.255C16.9816 13.2036 17 13.1438 17 13.0828V8.29702V3.73372C16.9997 3.65876 16.9718 3.58628 16.921 3.52898C16.8703 3.47168 16.8 3.43321 16.7224 3.42033H16.7211L8.63813 0.024582C8.59689 0.00821271 8.55264 -0.000144369 8.50797 1.88699e-06ZM8.50664 0.667352L15.7436 3.70546L12.6703 4.74028C12.6501 4.72612 12.6283 4.71416 12.6052 4.70464C11.982 4.4429 7.39009 2.5152 5.7468 1.82508L8.50664 0.667352ZM4.91672 2.17288C4.93167 2.17904 4.94089 2.18291 4.95524 2.18886C4.96976 2.19515 4.97549 2.19732 4.98977 2.20361C5.00647 2.21053 5.00875 2.21141 5.02828 2.21959C6.20965 2.71573 10.514 4.52388 11.7579 5.0463L8.4907 6.14626L1.24977 3.71037L4.91672 2.17288ZM16.3293 4.18477V8.29702V12.8788L8.83602 16.1799V6.70669L16.3293 4.18477ZM0.670704 4.19214L8.15867 6.71283V16.1799L0.670704 12.8812V8.4273V4.19214Z" fill="black"/>
</svg>
