<svg width="16" height="17" viewBox="0 0 16 17" fill="none" xmlns="http://www.w3.org/2000/svg">
<path d="M1.2829 11.5758C0.794818 12.1352 0.501739 12.471 0.500008 13.2157L0.500464 13.2227C0.501338 13.2335 0.503399 13.2528 0.508037 13.2774C0.517696 13.3287 0.536203 13.3911 0.568709 13.4487C0.615225 13.5311 0.717416 13.6668 1.06667 13.6668H14.9333C15.2826 13.6668 15.3848 13.5311 15.4313 13.4487C15.4638 13.3911 15.4823 13.3287 15.492 13.2774C15.4966 13.2528 15.4987 13.2335 15.4995 13.2227L15.5 13.2157C15.4983 12.471 15.2052 12.1352 14.7171 11.5758C14.5844 11.4237 14.4372 11.255 14.2775 11.0571C13.5362 10.1383 12.8333 8.84582 12.8333 6.13905C12.8333 3.86305 10.7279 1.91685 8 1.91685C5.27214 1.91685 3.16667 3.86305 3.16667 6.13905C3.16667 8.84582 2.46376 10.1383 1.72249 11.0571C1.56282 11.255 1.41565 11.4237 1.2829 11.5758Z" stroke="black"/>
<path d="M9.10003 1.41665C9.10003 0.965889 8.66613 0.499996 8.00002 0.499996C7.3335 0.499996 6.90002 0.965788 6.90002 1.41665C6.90002 1.86752 7.3335 2.33331 8.00002 2.33331C8.66613 2.33331 9.10003 1.86742 9.10003 1.41665Z" stroke="black"/>
<path d="M8.00003 16.5C8.72912 16.5 9.29211 16.1101 9.52134 15.6111H6.47873C6.70795 16.1101 7.27095 16.5 8.00003 16.5Z" stroke="black"/>
</svg>
