<svg width="14" height="14" viewBox="0 0 14 14" fill="none" xmlns="http://www.w3.org/2000/svg">
<path fill-rule="evenodd" clip-rule="evenodd" d="M9.85805 4.19998C9.85805 2.65578 8.57637 1.39999 7 1.39999C5.42363 1.39999 4.14195 2.65578 4.14195 4.19998C4.14195 5.74418 5.42363 6.99997 7 6.99997C8.57637 6.99997 9.85805 5.74418 9.85805 4.19998ZM12.5621 14H11.2874C11.1945 14.001 11.1023 13.9837 11.0161 13.949C10.9299 13.9144 10.8514 13.8631 10.785 13.7981C10.7186 13.7331 10.6657 13.6556 10.6293 13.5701C10.5929 13.4847 10.5737 13.3929 10.5727 13.3C10.5727 12.9136 10.8926 12.6 11.2867 12.6H11.594C12.0882 12.6 12.4536 12.1121 12.266 11.6634C11.4008 9.58856 9.36806 8.39997 7 8.39997C4.63124 8.39997 2.59917 9.58856 1.73399 11.6634C1.54639 12.1121 1.9118 12.6 2.40599 12.6H2.71258C3.10737 12.6 3.42726 12.9136 3.42726 13.3C3.42726 13.6864 3.10738 14 2.71328 14H1.43789C0.544709 14 -0.158064 13.1998 0.0309327 12.3452C0.551023 9.99386 2.17569 8.25855 4.31485 7.47105C3.33907 6.70176 2.71258 5.52298 2.71258 4.19998C2.71258 1.71429 4.91614 -0.266716 7.5138 0.0293837C9.39606 0.243583 10.9549 1.71285 11.2377 3.54894C11.4799 5.13164 10.8191 6.57716 9.68515 7.47105C11.8243 8.25855 13.449 9.99386 13.9691 12.3452C14.1581 13.1998 13.4553 14 12.5621 14ZM9.14337 13.3C9.14337 13.6864 8.82346 14 8.42937 14H5.57063C5.47779 14.0009 5.38566 13.9835 5.29953 13.9489C5.2134 13.9142 5.13495 13.8629 5.06865 13.7979C5.00235 13.7329 4.94951 13.6554 4.91313 13.57C4.87676 13.4846 4.85755 13.3928 4.85663 13.3C4.85663 12.9136 5.17654 12.6 5.57063 12.6H8.42937C8.82346 12.6 9.14337 12.9136 9.14337 13.3Z" fill="black"/>
</svg>
