<svg width="16" height="16" viewBox="0 0 16 16" fill="none" xmlns="http://www.w3.org/2000/svg">
<path d="M3.97303 10.3921L4.03118 10.1172L3.82668 9.92463L0.728265 7.00621C0.547644 6.81522 0.460717 6.49287 0.516355 6.07874C0.632763 5.82793 0.886392 5.62133 1.12509 5.5556H1.15327H1.18052L1.2076 5.55264L5.26456 5.10917L5.55438 5.07749L5.66956 4.80965L7.24389 1.14859C7.30778 1.0906 7.34923 1.02646 7.3754 0.972678C7.38667 0.949519 7.39571 0.927092 7.403 0.906C7.58732 0.627583 7.84783 0.5 8.05873 0.5C8.17338 0.5 8.27133 0.535044 8.34251 0.59447C8.40891 0.649904 8.48489 0.753653 8.51299 0.9558L8.57293 1.38695H8.72714L10.2753 4.98704L10.3904 5.25488L10.6803 5.28656L14.7372 5.73003L14.7643 5.73299H14.7915H14.8306C15.1215 5.79583 15.3299 5.99867 15.4477 6.30132C15.5543 6.57499 15.4958 6.89676 15.2964 7.10164L15.6547 7.45036L15.2964 7.10165L15.2198 7.18038L13.59 8.67879L13.5797 8.68819L13.57 8.69815C13.0388 9.24397 12.5517 9.74264 12.2421 9.98125L11.993 10.1732L12.0581 10.4808L12.9186 14.5481C12.9782 14.9367 12.84 15.2327 12.6301 15.3621L12.608 15.3757L12.5873 15.3916C12.4539 15.4945 12.2067 15.5371 11.9312 15.4627C11.8823 15.413 11.8298 15.378 11.7831 15.354C11.7536 15.3389 11.7252 15.3274 11.6991 15.3187L8.22211 13.3145L7.97241 13.1706L7.72271 13.3145L4.18366 15.3545L3.99977 15.4605C3.95915 15.4638 3.90523 15.4651 3.82913 15.4651C3.67332 15.4651 3.55532 15.4103 3.49691 15.3503L3.45371 15.3059L3.40099 15.2734C3.19116 15.144 3.05289 14.848 3.11252 14.4594L3.97303 10.3921Z" stroke="black"/>
</svg>
