<svg width="16" height="17" viewBox="0 0 16 17" fill="none" xmlns="http://www.w3.org/2000/svg">
<path d="M8.42115 8.80774C8.74963 8.80935 9.07478 8.74055 9.37556 8.60579C9.67634 8.47103 9.94605 8.27331 10.1672 8.02542C10.3884 7.77754 10.5561 7.48501 10.6596 7.16678C10.763 6.84855 10.7998 6.5117 10.7676 6.17803C10.6948 5.57617 10.407 5.02289 9.95926 4.62424C9.51155 4.2256 8.93544 4.00963 8.34137 4.01774H7.01329C6.63991 4.01774 6.28181 4.16913 6.01779 4.43862C5.75377 4.70811 5.60544 5.07362 5.60544 5.45474V7.84974H5.13615C5.01169 7.84974 4.89233 7.9002 4.80432 7.99003C4.71631 8.07986 4.66687 8.2017 4.66687 8.32874C4.66687 8.45578 4.71631 8.57761 4.80432 8.66744C4.89233 8.75727 5.01169 8.80774 5.13615 8.80774H5.60544V9.76574H5.13615C5.01169 9.76574 4.89233 9.8162 4.80432 9.90603C4.71631 9.99586 4.66687 10.1177 4.66687 10.2447C4.66687 10.3718 4.71631 10.4936 4.80432 10.5834C4.89233 10.6733 5.01169 10.7237 5.13615 10.7237H5.60544V12.1607C5.60544 12.2878 5.65488 12.4096 5.74289 12.4994C5.8309 12.5893 5.95026 12.6397 6.07472 12.6397C6.19919 12.6397 6.31855 12.5893 6.40656 12.4994C6.49457 12.4096 6.54401 12.2878 6.54401 12.1607V10.7237H8.89043C9.01489 10.7237 9.13426 10.6733 9.22227 10.5834C9.31028 10.4936 9.35972 10.3718 9.35972 10.2447C9.35972 10.1177 9.31028 9.99586 9.22227 9.90603C9.13426 9.8162 9.01489 9.76574 8.89043 9.76574H6.54401V8.80774H8.42115ZM6.54401 5.45474C6.54401 5.3277 6.59345 5.20586 6.68146 5.11603C6.76947 5.0262 6.88883 4.97574 7.01329 4.97574H8.34137C8.70158 4.96756 9.05216 5.09481 9.32645 5.33326C9.60074 5.57172 9.77959 5.90476 9.829 6.26904C9.8466 6.46857 9.82313 6.66966 9.76009 6.85939C9.69705 7.04911 9.59584 7.22329 9.46296 7.37074C9.33176 7.52047 9.17125 7.64046 8.9918 7.72297C8.81236 7.80547 8.61796 7.84866 8.42115 7.84974H6.54401V5.45474Z" fill="black"/>
<path d="M8 16.8895C6.41775 16.8895 4.87103 16.4182 3.55544 15.5352C2.23985 14.6523 1.21447 13.3973 0.608967 11.9289C0.00346627 10.4606 -0.15496 8.84492 0.153721 7.28617C0.462403 5.72741 1.22433 4.29559 2.34315 3.17179C3.46197 2.04799 4.88743 1.28267 6.43928 0.972613C7.99113 0.662556 9.59966 0.821688 11.0615 1.42989C12.5233 2.03808 13.7727 3.06803 14.6518 4.38948C15.5308 5.71093 16 7.26454 16 8.85384C16 10.985 15.1571 13.0289 13.6569 14.5359C12.1566 16.0429 10.1217 16.8895 8 16.8895ZM8 1.62177C6.57598 1.62177 5.18393 2.04593 3.9999 2.8406C2.81586 3.63527 1.89302 4.76476 1.34807 6.08625C0.80312 7.40773 0.660536 8.86186 0.938349 10.2647C1.21616 11.6676 1.9019 12.9563 2.90883 13.9677C3.91577 14.9791 5.19869 15.6679 6.59535 15.9469C7.99202 16.226 9.43969 16.0828 10.7553 15.5354C12.0709 14.988 13.1954 14.0611 13.9866 12.8718C14.7777 11.6825 15.2 10.2842 15.2 8.85384C15.2 6.93578 14.4414 5.09627 13.0912 3.74C11.7409 2.38372 9.90956 1.62177 8 1.62177Z" fill="black"/>
</svg>
