<?xml version="1.0" standalone="no"?>
<!DOCTYPE svg PUBLIC "-//W3C//DTD SVG 20010904//EN"
 "http://www.w3.org/TR/2001/REC-SVG-20010904/DTD/svg10.dtd">
<svg version="1.0" xmlns="http://www.w3.org/2000/svg"
width="15" height="20" viewBox="0 0 1138.000000 1280.000000"
 preserveAspectRatio="xMidYMid meet">

<g transform="translate(0.000000,1280.000000) scale(0.100000,-0.100000)"
fill="#000000" stroke="none">
<path d="M5603 11499 c-23 -11 -84 -56 -135 -101 -223 -192 -444 -303 -775
-388 -471 -122 -1096 -132 -1582 -24 -148 33 -318 90 -461 154 -235 106 -339
127 -412 82 -114 -70 -522 -839 -705 -1327 -255 -678 -374 -1287 -390 -1990
-12 -570 46 -1055 199 -1660 205 -811 571 -1590 1048 -2230 140 -189 258 -324
484 -554 253 -256 437 -421 641 -574 303 -227 546 -377 910 -564 132 -67 236
-123 232 -123 -5 0 -17 5 -27 10 -18 10 -18 9 -4 -25 15 -37 14 -57 -13 -168
-15 -64 -15 -69 3 -103 19 -35 55 -62 126 -95 87 -41 392 -125 630 -173 297
-61 564 -61 856 -1 276 57 595 170 665 236 11 10 23 19 27 19 12 0 69 99 91
160 47 133 113 205 276 300 407 238 671 422 938 650 146 125 520 498 636 635
81 94 234 290 271 345 9 14 39 57 67 95 261 365 560 958 731 1450 168 481 283
999 337 1510 22 211 25 841 5 1030 -31 299 -56 470 -64 440 -4 -19 -5 -7 -3
30 4 44 2 55 -5 40 -8 -15 -9 -6 -6 35 2 30 1 47 -2 37 -5 -10 -16 36 -30 115
-64 378 -186 811 -337 1193 -134 338 -360 788 -548 1090 -102 164 -133 189
-232 187 -67 -1 -140 -25 -347 -116 -340 -149 -671 -209 -1158 -210 -411 -1
-707 40 -1007 139 -252 83 -437 185 -622 344 -51 44 -112 89 -135 101 -54 26
-120 26 -173 -1z m4614 -3086 c-3 -10 -5 -2 -5 17 0 19 2 27 5 18 2 -10 2 -26
0 -35z m10 -90 c-3 -10 -5 -2 -5 17 0 19 2 27 5 18 2 -10 2 -26 0 -35z m10
-120 c-3 -10 -5 -2 -5 17 0 19 2 27 5 18 2 -10 2 -26 0 -35z m10 -145 c-3 -8
-6 -5 -6 6 -1 11 2 17 5 13 3 -3 4 -12 1 -19z"/>
</g>
</svg>
