<svg width="16" height="16" viewBox="0 0 37 37" fill="none" xmlns="http://www.w3.org/2000/svg">
<path d="M18.1395 0C13.33 0.00459573 8.71883 1.9263 5.318 5.34333C1.91717 8.76036 0.00457395 13.3935 0 18.2259V35.584C0 35.8142 0.0910061 36.0349 0.252998 36.1977C0.414989 36.3604 0.634697 36.4519 0.863788 36.4519H18.1395C22.9504 36.4519 27.5643 34.5316 30.9661 31.1136C34.368 27.6956 36.2791 23.0598 36.2791 18.2259C36.2791 13.3921 34.368 8.75628 30.9661 5.33825C27.5643 1.92023 22.9504 0 18.1395 0ZM18.1395 34.7161H1.72758V18.2259C1.72758 14.9645 2.69012 11.7763 4.49349 9.06451C6.29686 6.35272 8.86006 4.23914 11.859 2.99104C14.8578 1.74294 18.1577 1.41638 21.3414 2.05266C24.525 2.68893 27.4493 4.25947 29.7446 6.56565C32.0398 8.87184 33.6029 11.8101 34.2362 15.0089C34.8694 18.2076 34.5444 21.5233 33.3022 24.5364C32.06 27.5496 29.9565 30.125 27.2575 31.937C24.5586 33.7489 21.3855 34.7161 18.1395 34.7161Z" fill="black"/>
<path d="M18.1395 19.9617C19.0936 19.9617 19.8671 19.1846 19.8671 18.2259C19.8671 17.2673 19.0936 16.4901 18.1395 16.4901C17.1854 16.4901 16.412 17.2673 16.412 18.2259C16.412 19.1846 17.1854 19.9617 18.1395 19.9617Z" fill="black"/>
<path d="M25.0498 19.9617C26.0039 19.9617 26.7774 19.1846 26.7774 18.2259C26.7774 17.2673 26.0039 16.4901 25.0498 16.4901C24.0957 16.4901 23.3223 17.2673 23.3223 18.2259C23.3223 19.1846 24.0957 19.9617 25.0498 19.9617Z" fill="black"/>
<path d="M11.2292 19.9617C12.1833 19.9617 12.9568 19.1846 12.9568 18.2259C12.9568 17.2673 12.1833 16.4901 11.2292 16.4901C10.2751 16.4901 9.50165 17.2673 9.50165 18.2259C9.50165 19.1846 10.2751 19.9617 11.2292 19.9617Z" fill="black"/>
</svg>
