<svg width="16" height="16" viewBox="0 0 16 16" fill="none" xmlns="http://www.w3.org/2000/svg">
<path d="M14.8571 0H1.14286C0.839753 0 0.549062 0.12967 0.334735 0.360484C0.120408 0.591298 0 0.904349 0 1.23077V2.46154C0 2.78796 0.120408 3.10101 0.334735 3.33182C0.549062 3.56264 0.839753 3.69231 1.14286 3.69231V13.5385C1.14286 14.1913 1.38367 14.8174 1.81233 15.279C2.24098 15.7407 2.82236 16 3.42857 16H12.5714C13.1776 16 13.759 15.7407 14.1877 15.279C14.6163 14.8174 14.8571 14.1913 14.8571 13.5385V3.69231C15.1602 3.69231 15.4509 3.56264 15.6653 3.33182C15.8796 3.10101 16 2.78796 16 2.46154V1.23077C16 0.904349 15.8796 0.591298 15.6653 0.360484C15.4509 0.12967 15.1602 0 14.8571 0ZM13.7143 13.5385C13.7143 13.8649 13.5939 14.1779 13.3796 14.4087C13.1652 14.6396 12.8745 14.7692 12.5714 14.7692H3.42857C3.12547 14.7692 2.83478 14.6396 2.62045 14.4087C2.40612 14.1779 2.28571 13.8649 2.28571 13.5385V3.69231H13.7143V13.5385ZM14.2857 2.46154H1.14286V1.23077H14.8571V2.46154H14.2857Z" fill="black"/>
<path d="M6.28578 6.76923H9.71436C9.86591 6.76923 10.0113 6.70439 10.1184 6.58899C10.2256 6.47358 10.2858 6.31705 10.2858 6.15384C10.2858 5.99063 10.2256 5.83411 10.1184 5.7187C10.0113 5.60329 9.86591 5.53846 9.71436 5.53846H6.28578C6.13423 5.53846 5.98889 5.60329 5.88172 5.7187C5.77456 5.83411 5.71436 5.99063 5.71436 6.15384C5.71436 6.31705 5.77456 6.47358 5.88172 6.58899C5.98889 6.70439 6.13423 6.76923 6.28578 6.76923ZM6.28578 9.84615H9.71436C9.86591 9.84615 10.0113 9.78132 10.1184 9.66591C10.2256 9.5505 10.2858 9.39398 10.2858 9.23077C10.2858 9.06756 10.2256 8.91103 10.1184 8.79562C10.0113 8.68022 9.86591 8.61538 9.71436 8.61538H6.28578C6.13423 8.61538 5.98889 8.68022 5.88172 8.79562C5.77456 8.91103 5.71436 9.06756 5.71436 9.23077C5.71436 9.39398 5.77456 9.5505 5.88172 9.66591C5.98889 9.78132 6.13423 9.84615 6.28578 9.84615ZM6.28578 12.9231H9.71436C9.86591 12.9231 10.0113 12.8582 10.1184 12.7428C10.2256 12.6274 10.2858 12.4709 10.2858 12.3077C10.2858 12.1445 10.2256 11.988 10.1184 11.8725C10.0113 11.7571 9.86591 11.6923 9.71436 11.6923H6.28578C6.13423 11.6923 5.98889 11.7571 5.88172 11.8725C5.77456 11.988 5.71436 12.1445 5.71436 12.3077C5.71436 12.4709 5.77456 12.6274 5.88172 12.7428C5.98889 12.8582 6.13423 12.9231 6.28578 12.9231Z" fill="black"/>
</svg>
