<svg width="23" height="27" viewBox="0 0 23 27" fill="none" xmlns="http://www.w3.org/2000/svg">
<path d="M7.57912 27C9.60522 27 11.5188 26.1634 12.9821 24.6496L17.7096 19.63C18.0473 19.2715 18.0473 18.6341 17.7096 18.2755C17.3719 17.917 16.7716 17.917 16.4339 18.2755L11.7064 23.2553C10.6183 24.4105 9.15498 25.048 7.57912 25.048C6.00326 25.048 4.57749 24.4105 3.45188 23.2553C2.32626 22.1 1.76346 20.5463 1.76346 18.8731C1.76346 17.1999 2.36379 15.6861 3.45188 14.491L14.1452 3.13722C14.9331 2.30063 15.9462 1.86241 17.0718 1.86241C18.1599 1.86241 19.2104 2.30063 19.9984 3.13722C20.7863 3.97381 21.199 5.04943 21.199 6.24456C21.199 7.39985 20.7863 8.51531 19.9984 9.3519L9.26754 20.7455C8.32953 21.7414 6.75367 21.7414 5.81566 20.7455C5.36542 20.2674 5.10277 19.5902 5.10277 18.9129C5.10277 18.2357 5.36542 17.5585 5.81566 17.0804L10.5808 12.021C10.9184 11.6625 10.9184 11.0251 10.5808 10.6665C10.2431 10.308 9.64274 10.308 9.30506 10.6665L4.57749 15.7259C3.78956 16.5625 3.33931 17.7178 3.33931 18.9129C3.33931 20.1081 3.78956 21.2634 4.57749 22.1C6.22838 23.8528 8.92985 23.8528 10.5808 22.1L21.2741 10.7462C22.3997 9.55109 23 7.99742 23 6.2844C23 4.57138 22.3997 3.01771 21.2741 1.82257C18.9853 -0.607525 15.1958 -0.607525 12.907 1.82257L2.2137 13.1763C0.787928 14.6902 0 16.7219 0 18.9129C0 21.0642 0.787928 23.0959 2.2137 24.6496C3.63948 26.1634 5.55302 27 7.57912 27Z" fill="#909090"/>
</svg>
