<svg width="23" height="22" viewBox="0 0 23 22" fill="none" xmlns="http://www.w3.org/2000/svg">
<rect width="22" height="22" fill="#9509EF" fill-opacity="0.4"/>
<path d="M16.8196 15.9959C16.3227 16.4765 15.8794 16.8218 15.3988 16.325L11.5758 12.3727L7.62347 16.1957C7.12752 16.6754 6.69502 16.3164 6.21443 15.8195C5.73384 15.3227 5.38939 14.8785 5.88533 14.3988L9.83764 10.5757L6.01461 6.62344C5.53489 6.12749 5.89391 5.695 6.39076 5.2144C6.88761 4.73381 7.3318 4.38936 7.81153 4.88531L11.6346 8.83761L15.5869 5.01459C16.0837 4.53399 16.5153 4.89389 16.9959 5.39073C17.4765 5.88758 17.8218 6.3309 17.325 6.8115L13.3727 10.6345L17.1957 14.5868C17.6763 15.0837 17.3164 15.5153 16.8196 15.9959Z" fill="white"/>
</svg>
