<svg width="52" height="52" viewBox="0 0 52 52" fill="none" xmlns="http://www.w3.org/2000/svg">
<path d="M41.0947 42.7328V45.5456C36.7711 48.8842 31.4626 50.6953 26 50.6953C20.5374 50.6953 15.2289 48.8842 10.9053 45.5456V42.7328C10.9053 38.7294 12.4956 34.89 15.3264 32.0592C18.1572 29.2284 21.9966 27.638 26 27.638C30.0034 27.638 33.8428 29.2284 36.6736 32.0592C39.5044 34.89 41.0947 38.7294 41.0947 42.7328V42.7328ZM31.4477 11.1398C32.7021 12.3887 33.4844 14.0341 33.6613 15.7953C33.8382 17.5566 33.3987 19.3246 32.4177 20.7981C31.4367 22.2715 29.9751 23.359 28.2819 23.8752C26.5887 24.3914 24.7689 24.3043 23.1328 23.6288C21.4966 22.9533 20.1455 21.7311 19.3097 20.1707C18.4739 18.6103 18.2052 16.8084 18.5495 15.0721C18.8938 13.3357 19.8297 11.7726 21.1977 10.6492C22.5656 9.52579 24.2809 8.91166 26.051 8.91153C27.053 8.90868 28.0457 9.10409 28.9719 9.48651C29.8981 9.86893 30.7396 10.4308 31.4477 11.1398Z" fill="#FFCD2C"/>
<path d="M26 1.30469C39.6391 1.30469 50.6953 12.3609 50.6953 26C50.699 29.7756 49.8352 33.5016 48.1706 36.8905C46.506 40.2794 44.0851 43.2406 41.0947 45.5455V42.7328C41.0947 38.7294 39.5044 34.89 36.6736 32.0592C33.8428 29.2284 30.0034 27.638 26 27.638C21.9966 27.638 18.1572 29.2284 15.3264 32.0592C12.4956 34.89 10.9053 38.7294 10.9053 42.7328V45.5455C7.91487 43.2406 5.49397 40.2794 3.82939 36.8905C2.1648 33.5016 1.30101 29.7756 1.30468 26C1.30468 12.3609 12.3609 1.30469 26 1.30469ZM33.6759 16.5365C33.6722 14.7771 33.0588 13.0734 31.9401 11.7154C30.8215 10.3574 29.2667 9.42918 27.5406 9.08867C25.8144 8.74817 24.0236 9.01647 22.4731 9.8479C20.9225 10.6793 19.7081 12.0225 19.0365 13.6487C18.3649 15.2748 18.2777 17.0835 18.7898 18.7668C19.3019 20.45 20.3815 21.9037 21.8449 22.8804C23.3083 23.8571 25.065 24.2964 26.8159 24.1235C28.5668 23.9506 30.2036 23.1762 31.4477 21.9321C32.1565 21.2241 32.7183 20.3828 33.1007 19.4568C33.4832 18.5308 33.6786 17.5383 33.6759 16.5365V16.5365Z" fill="#4F4F4F"/>
</svg>
