<svg width="32" height="31" viewBox="0 0 32 31" fill="none" xmlns="http://www.w3.org/2000/svg">
<path d="M30.4276 13.6555L26.3485 17.5994H26.3478L26.0573 17.8796C25.6041 18.3166 25.2646 18.8579 25.0686 19.4561C24.8725 20.0544 24.8257 20.6915 24.9323 21.312L24.9325 21.3132L25.9655 27.2795C25.9655 27.2796 25.9656 27.2797 25.9656 27.2798C26.1705 28.4703 25.2215 29.4758 24.0954 29.4758C23.811 29.4758 23.5108 29.4093 23.2086 29.252L17.8092 26.435L17.8078 26.4342C17.249 26.1438 16.6285 25.9923 15.9988 25.9923C15.3691 25.9923 14.7487 26.1438 14.1899 26.4342L14.1885 26.435L8.78817 29.2525L8.78817 29.2525L8.78345 29.255C8.51135 29.3988 8.20847 29.4745 7.90069 29.4758C6.7762 29.4749 5.82768 28.4693 6.03349 27.2803L6.03352 27.2801L7.06513 21.313L7.0653 21.312C7.17191 20.6915 7.12514 20.0544 6.92906 19.4561C6.73299 18.8579 6.39358 18.3166 5.94037 17.8796L1.57277 13.6552L0.877541 14.374L1.57276 13.6552C0.459577 12.5785 1.06203 10.6874 2.62502 10.4617L8.66207 9.59187C8.66215 9.59186 8.66223 9.59185 8.66231 9.59184C9.28592 9.50283 9.8786 9.26373 10.3894 8.8951C10.9003 8.52642 11.3139 8.03921 11.5949 7.47531L11.5951 7.47496L14.2968 2.04722L14.2968 2.04722L14.2991 2.04253C14.454 1.72705 14.695 1.4618 14.9943 1.27735C15.2935 1.09291 15.6387 0.99679 15.9902 1.00008L15.9902 1.00013H15.9996C16.6917 1.00013 17.3569 1.35052 17.7038 2.04702C17.7039 2.04711 17.7039 2.0472 17.704 2.0473L20.4033 7.47335C20.4033 7.47343 20.4034 7.47352 20.4034 7.4736C20.9716 8.62001 22.0719 9.40974 23.3375 9.59172L29.3757 10.4617C30.9376 10.6873 31.5405 12.5779 30.4278 13.6553C30.4277 13.6554 30.4277 13.6554 30.4276 13.6555Z" stroke="#322F2F" stroke-width="2"/>
</svg>
