<svg width="196" height="217" viewBox="0 0 196 217" fill="none" xmlns="http://www.w3.org/2000/svg">
<g clip-path="url(#clip0)">
<path d="M172.144 91.1191L157.526 58.8495C155.907 55.2745 152.603 53.0176 148.991 53.0176H81.1449C78.1289 53.0176 75.2901 54.5952 73.4884 57.2728L50.7106 91.1191L37.5739 109.876H182.26L172.144 91.1191Z" fill="#D491FF"/>
<path d="M120.554 57.2728C122.356 54.5952 125.195 53.0176 128.211 53.0176H81.1449C78.1289 53.0176 75.2901 54.5952 73.4884 57.2728L50.7106 91.1191L37.5739 109.876H84.6395L97.7763 91.1191L120.554 57.2728Z" fill="#C05EFF"/>
<path d="M158.899 91.1208L148.277 67.6689C147.846 66.7208 146.974 66.1223 146.019 66.1223H141.371L134.175 72.6432V101.054L141.371 105.63H165.975L158.899 91.1208Z" fill="#B8DDFF"/>
<path d="M141.371 91.1208V105.63H55.1183L65.4728 91.1208L81.5371 67.2495C82.0146 66.5417 82.7643 66.1223 83.5614 66.1223H141.371V91.1208Z" fill="#D5EAFF"/>
<path d="M153.063 91.1208H105.446L95.3242 102.353V136.887L105.446 141.839H153.063L163.048 130.088V106.836C163.048 106.053 162.816 105.292 162.388 104.67L153.063 91.1208Z" fill="#AD2DFF"/>
<path d="M190.772 104.248L192.684 101.687C192.01 95.7308 187.42 91.1208 181.857 91.1208H153.063V141.839H192.772V118.068L190.772 116.942V104.248Z" fill="#A038E3"/>
<path d="M59.6445 91.1208H24.864C12.3551 91.1208 2.21375 102.349 2.21375 116.198V134.071V141.839H52.3048L68.6533 137.311V101.685L59.6445 91.1208Z" fill="#A038E3"/>
<path d="M83.5614 66.1223C82.7643 66.1223 82.0146 66.5417 81.5371 67.2495L65.4728 91.1208L55.1183 105.63H87.6136L97.7763 91.119L114.599 66.1223H83.5614Z" fill="#B8DDFF"/>
<path d="M133.181 141.837V141.839H153.063L163.047 130.088V108.771C146.579 108.771 133.181 123.604 133.181 141.837Z" fill="#9509EF"/>
<path d="M192.772 138.633C191.312 121.898 178.54 108.77 163.048 108.77C159.547 108.77 156.187 109.446 153.063 110.677V141.839H192.772V138.633Z" fill="#C05EFF"/>
<path d="M68.6533 137.311V129.619C64.2542 117.418 53.4796 108.77 40.9079 108.77C24.4394 108.77 11.041 123.604 11.041 141.837V141.838H52.3048L68.6533 137.311Z" fill="#C05EFF"/>
<path d="M105.446 91.1208V141.839H52.3048V122.533V105.883C52.3048 105.241 52.4587 104.616 52.7507 104.066L59.6445 91.1208H105.446Z" fill="#C05EFF"/>
<path d="M52.3048 111.278V122.533V141.839H70.7755C70.7755 141.838 70.7755 141.838 70.7755 141.837C70.7755 128.071 63.1355 116.247 52.3048 111.278Z" fill="#AD2DFF"/>
<path d="M196 137.098V144.866C196 146.535 194.777 147.889 193.265 147.889H2.21373C0.990457 147.889 0 146.793 0 145.439V136.526C0 135.172 0.990457 134.071 2.21373 134.071H193.265C194.777 134.071 196 135.425 196 137.098Z" fill="#D7D0D6"/>
<path d="M11.041 141.837C11.041 143.905 11.2217 145.926 11.5512 147.889H70.2652C70.5947 145.926 70.7754 143.905 70.7754 141.837C70.7754 139.162 70.4795 136.563 69.9353 134.071H11.8811C11.337 136.564 11.041 139.162 11.041 141.837Z" fill="#B8B2B8"/>
<path d="M40.9082 163.982C51.9551 163.982 60.9103 154.068 60.9103 141.837C60.9103 129.607 51.9551 119.692 40.9082 119.692C29.8614 119.692 20.9061 129.607 20.9061 141.837C20.9061 154.068 29.8614 163.982 40.9082 163.982Z" fill="#736572"/>
<path d="M40.9082 141.837C40.9082 133.642 44.9379 126.488 50.9146 122.659C47.972 120.773 44.5528 119.693 40.9082 119.693C29.8613 119.693 20.9065 129.607 20.9065 141.838C20.9065 154.068 29.8617 163.983 40.9082 163.983C44.5528 163.983 47.974 162.901 50.9166 161.016C44.9399 157.185 40.9082 150.033 40.9082 141.837Z" fill="#615260"/>
<path d="M40.9082 150.876C36.407 150.876 32.7447 146.821 32.7447 141.838C32.7447 136.854 36.407 132.799 40.9082 132.799C45.4099 132.799 49.0722 136.854 49.0722 141.838C49.0722 146.821 45.4099 150.876 40.9082 150.876Z" fill="#F9F7F8"/>
<path d="M133.181 141.837C133.181 143.905 133.361 145.926 133.691 147.889H192.404C192.734 145.926 192.915 143.905 192.915 141.837C192.915 139.162 192.619 136.563 192.074 134.071H134.02C133.476 136.564 133.181 139.162 133.181 141.837Z" fill="#B8B2B8"/>
<path d="M163.048 163.982C174.095 163.982 183.05 154.068 183.05 141.837C183.05 129.607 174.095 119.692 163.048 119.692C152.001 119.692 143.046 129.607 143.046 141.837C143.046 154.068 152.001 163.982 163.048 163.982Z" fill="#736572"/>
<path d="M40.9082 141.837C40.9082 138.69 41.5037 135.699 42.5731 132.989C42.0352 132.865 41.4788 132.799 40.9082 132.799C36.407 132.799 32.7447 136.854 32.7447 141.837C32.7447 146.821 36.407 150.875 40.9082 150.875C41.4788 150.875 42.0396 150.809 42.5774 150.685C41.5076 147.976 40.9082 144.984 40.9082 141.837Z" fill="#D7D0D6"/>
<path d="M163.048 141.837C163.048 133.642 167.078 126.488 173.055 122.658C170.112 120.773 166.692 119.692 163.048 119.692C152.001 119.692 143.046 129.607 143.046 141.837C143.046 154.068 152.001 163.982 163.048 163.982C166.692 163.982 170.113 162.901 173.056 161.015C167.079 157.186 163.048 150.033 163.048 141.837Z" fill="#615260"/>
<path d="M163.047 150.876C158.546 150.876 154.884 146.821 154.884 141.838C154.884 136.854 158.546 132.799 163.047 132.799C167.549 132.799 171.211 136.854 171.211 141.838C171.211 146.821 167.549 150.876 163.047 150.876Z" fill="#F9F7F8"/>
<path d="M163.048 141.837C163.048 138.691 163.644 135.699 164.714 132.989C164.176 132.865 163.618 132.799 163.048 132.799C158.547 132.799 154.884 136.854 154.884 141.837C154.884 146.821 158.547 150.875 163.048 150.875C163.619 150.875 164.176 150.809 164.715 150.685C163.644 147.975 163.048 144.984 163.048 141.837Z" fill="#D7D0D6"/>
<path d="M92.3646 108.906H90.2389C88.6041 108.906 87.2794 107.439 87.2794 105.63C87.2794 103.82 88.6041 102.353 90.2389 102.353H92.3646C93.9995 102.353 95.3242 103.82 95.3242 105.63C95.3242 107.439 93.9995 108.906 92.3646 108.906Z" fill="#D491FF"/>
<path d="M18.9923 91.9771V106.202C18.9923 110.689 15.7052 114.328 11.6487 114.328H2.27686C2.99109 103.559 9.85326 94.6814 18.9923 91.9771Z" fill="#AD2DFF"/>
<path d="M192.772 103.201V118.068H185.657C183.783 118.068 182.26 116.381 182.26 114.306V105.446C182.26 103.371 183.783 101.685 185.657 101.685H192.685C192.744 102.183 192.772 102.689 192.772 103.201Z" fill="#E94444"/>
</g>
<defs>
<clipPath id="clip0">
<rect width="196" height="217" fill="white"/>
</clipPath>
</defs>
</svg>
