<?xml version="1.0" encoding="UTF-8"?>
<svg xmlns="http://www.w3.org/2000/svg" xmlns:xlink="http://www.w3.org/1999/xlink" width="15pt" height="18pt" viewBox="0 0 15 18" version="1.1">
<g id="surface1">
<path style=" stroke:none;fill-rule:nonzero;fill:rgb(0%,0%,0%);fill-opacity:1;" d="M 8.820312 11.328125 C 9.722656 10.878906 10.441406 10.265625 10.964844 9.492188 C 11.480469 8.710938 11.746094 7.863281 11.746094 6.949219 C 11.746094 6.03125 11.480469 5.191406 10.964844 4.410156 C 10.441406 3.636719 9.722656 3.023438 8.820312 2.574219 C 7.917969 2.121094 6.9375 1.894531 5.875 1.894531 C 4.808594 1.894531 3.828125 2.121094 2.921875 2.574219 C 2.019531 3.023438 1.304688 3.636719 0.789062 4.410156 C 0.265625 5.191406 0 6.03125 0 6.949219 C 0 7.730469 0.203125 8.46875 0.59375 9.160156 C 0.980469 9.855469 1.53125 10.441406 2.214844 10.914062 C 2.160156 11.066406 2.105469 11.210938 2.050781 11.339844 C 1.992188 11.476562 1.917969 11.605469 1.839844 11.722656 C 1.757812 11.847656 1.699219 11.941406 1.652344 12.011719 C 1.605469 12.082031 1.53125 12.179688 1.4375 12.296875 C 1.335938 12.425781 1.273438 12.507812 1.238281 12.554688 C 1.238281 12.542969 1.230469 12.5625 1.207031 12.59375 C 1.183594 12.628906 1.175781 12.648438 1.171875 12.640625 C 1.167969 12.640625 1.15625 12.65625 1.140625 12.6875 C 1.121094 12.726562 1.109375 12.742188 1.109375 12.742188 L 1.089844 12.796875 C 1.085938 12.816406 1.078125 12.835938 1.074219 12.855469 C 1.070312 12.878906 1.066406 12.894531 1.066406 12.917969 C 1.066406 12.945312 1.070312 12.964844 1.078125 12.984375 C 1.085938 13.066406 1.121094 13.136719 1.171875 13.191406 C 1.222656 13.246094 1.277344 13.273438 1.34375 13.273438 L 1.367188 13.273438 C 1.648438 13.226562 1.882812 13.167969 2.085938 13.109375 C 2.941406 12.855469 3.71875 12.425781 4.402344 11.847656 C 4.90625 11.949219 5.390625 12.003906 5.875 12.003906 C 6.929688 12.003906 7.917969 11.777344 8.820312 11.328125 Z M 4.15625 10.503906 L 3.785156 10.808594 C 3.632812 10.933594 3.460938 11.0625 3.269531 11.199219 L 3.558594 10.371094 L 2.75 9.8125 C 2.214844 9.445312 1.800781 9.011719 1.507812 8.511719 C 1.214844 8.007812 1.066406 7.488281 1.066406 6.949219 C 1.066406 6.28125 1.285156 5.652344 1.726562 5.066406 C 2.15625 4.484375 2.746094 4.015625 3.484375 3.667969 C 4.226562 3.328125 5.019531 3.160156 5.875 3.160156 C 6.722656 3.160156 7.515625 3.328125 8.257812 3.667969 C 8.992188 4.015625 9.582031 4.484375 10.019531 5.066406 C 10.460938 5.652344 10.675781 6.28125 10.675781 6.949219 C 10.675781 7.625 10.460938 8.25 10.019531 8.835938 C 9.582031 9.421875 8.992188 9.882812 8.257812 10.226562 C 7.515625 10.574219 6.722656 10.742188 5.875 10.742188 C 5.453125 10.742188 5.03125 10.699219 4.597656 10.597656 Z M 4.15625 10.503906 "/>
<path style=" stroke:none;fill-rule:nonzero;fill:rgb(0%,0%,0%);fill-opacity:1;" d="M 14.355469 11.695312 C 14.75 11.007812 14.945312 10.265625 14.945312 9.480469 C 14.945312 8.667969 14.738281 7.910156 14.324219 7.207031 C 13.902344 6.5 13.332031 5.917969 12.625 5.453125 C 12.746094 5.941406 12.804688 6.441406 12.804688 6.949219 C 12.804688 7.828125 12.625 8.667969 12.253906 9.460938 C 11.875 10.246094 11.34375 10.945312 10.648438 11.550781 C 10.003906 12.105469 9.273438 12.53125 8.449219 12.824219 C 7.625 13.125 6.765625 13.273438 5.875 13.273438 C 5.707031 13.273438 5.460938 13.257812 5.136719 13.230469 C 6.253906 14.09375 7.566406 14.535156 9.070312 14.535156 C 9.550781 14.535156 10.042969 14.480469 10.539062 14.378906 C 11.230469 14.953125 12.003906 15.375 12.859375 15.640625 C 13.058594 15.695312 13.300781 15.753906 13.578125 15.796875 C 13.644531 15.804688 13.707031 15.78125 13.761719 15.730469 C 13.820312 15.679688 13.855469 15.601562 13.871094 15.507812 C 13.867188 15.476562 13.871094 15.445312 13.878906 15.445312 C 13.890625 15.445312 13.886719 15.421875 13.875 15.382812 C 13.863281 15.34375 13.859375 15.324219 13.859375 15.324219 L 13.835938 15.277344 C 13.835938 15.265625 13.824219 15.246094 13.808594 15.214844 C 13.796875 15.195312 13.785156 15.183594 13.777344 15.167969 C 13.765625 15.160156 13.75 15.148438 13.738281 15.121094 C 13.722656 15.097656 13.710938 15.085938 13.703125 15.078125 C 13.675781 15.035156 13.609375 14.953125 13.507812 14.832031 C 13.410156 14.707031 13.335938 14.613281 13.296875 14.539062 C 13.25 14.472656 13.191406 14.371094 13.101562 14.253906 C 13.03125 14.125 12.957031 14.007812 12.902344 13.875 C 12.839844 13.742188 12.78125 13.597656 12.730469 13.441406 C 13.417969 12.964844 13.957031 12.386719 14.355469 11.695312 Z M 14.355469 11.695312 "/>
</g>
</svg>
