<svg width="14" height="10" viewBox="0 0 14 10" fill="none" xmlns="http://www.w3.org/2000/svg">
<path d="M5.21265 9.56956C5.08207 9.5697 4.95275 9.54298 4.83212 9.49093C4.71149 9.43888 4.60192 9.36253 4.50972 9.26627L0.291162 4.87424C0.198852 4.77813 0.125628 4.66404 0.0756705 4.53847C0.0257128 4.41291 9.72642e-10 4.27832 0 4.14241C-9.72641e-10 4.00649 0.0257128 3.87191 0.0756705 3.74634C0.125628 3.62078 0.198852 3.50668 0.291162 3.41058C0.383472 3.31447 0.493059 3.23823 0.613668 3.18622C0.734276 3.13421 0.863543 3.10744 0.994089 3.10744C1.12463 3.10744 1.2539 3.13421 1.37451 3.18622C1.49512 3.23823 1.60471 3.31447 1.69702 3.41058L5.21265 7.07077L11.713 0.303134C11.8053 0.207029 11.9149 0.130794 12.0355 0.0787821C12.1561 0.0267702 12.2854 1.01264e-09 12.4159 0C12.5465 -1.01264e-09 12.6757 0.0267702 12.7963 0.0787821C12.9169 0.130794 13.0265 0.207029 13.1188 0.303134C13.2111 0.39924 13.2844 0.513334 13.3343 0.638902C13.3843 0.76447 13.41 0.899053 13.41 1.03497C13.41 1.17088 13.3843 1.30546 13.3343 1.43103C13.2844 1.5566 13.2111 1.67069 13.1188 1.7668L5.91557 9.26627C5.82337 9.36253 5.71381 9.43888 5.59318 9.49093C5.47255 9.54298 5.34323 9.5697 5.21265 9.56956Z" fill="#9509EF"/>
</svg>
