<svg width="13" height="14" viewBox="0 0 13 14" fill="none" xmlns="http://www.w3.org/2000/svg">
<path d="M12.3975 0.648595C12.009 0.233156 11.4836 0 10.936 0C10.3884 0 9.86303 0.233156 9.47451 0.648595L0.543927 10.2627C0.460159 10.3559 0.405063 10.4745 0.38613 10.6025L0.00666452 13.3003C-0.00579289 13.3867 -0.000744973 13.475 0.0214623 13.5591C0.0436695 13.6433 0.0825109 13.7212 0.135325 13.7877C0.188138 13.8542 0.253675 13.9075 0.327444 13.9442C0.401213 13.9808 0.481469 13.9999 0.562713 14H0.649125L3.15134 13.5955C3.27025 13.5752 3.38044 13.5158 3.46694 13.4257L12.3975 3.79534C12.7834 3.37708 13 2.81148 13 2.22197C13 1.63245 12.7834 1.06686 12.3975 0.648595ZM2.80193 12.4105L1.23523 12.6653L1.47193 10.9786L8.80575 3.08752L10.132 4.51529L2.80193 12.4105ZM11.601 2.93787L10.6655 3.94499L9.3355 2.51318L10.271 1.50606C10.3583 1.41205 10.462 1.33747 10.5761 1.28659C10.6902 1.23571 10.8125 1.20952 10.936 1.20952C11.0595 1.20952 11.1818 1.23571 11.2959 1.28659C11.41 1.33747 11.5137 1.41205 11.601 1.50606C11.6883 1.60008 11.7576 1.71169 11.8049 1.83452C11.8521 1.95736 11.8765 2.08901 11.8765 2.22197C11.8765 2.35492 11.8521 2.48658 11.8049 2.60941C11.7576 2.73224 11.6883 2.84386 11.601 2.93787Z" fill="#231F20"/>
</svg>
