<svg width="12" height="15" viewBox="0 0 12 15" fill="none" xmlns="http://www.w3.org/2000/svg">
<path fill-rule="evenodd" clip-rule="evenodd" d="M8.4 3.58242C8.4 2.26623 7.3236 1.19586 6 1.19586C4.6764 1.19586 3.6 2.26623 3.6 3.58242C3.6 4.89861 4.6764 5.96898 6 5.96898C7.3236 5.96898 8.4 4.89861 8.4 3.58242ZM12 11.9354H9V10.7421H10.6704C10.1748 8.48322 8.271 7.16226 6 7.16226C3.729 7.16226 1.8252 8.48322 1.3296 10.7421H3V11.9354H0C0 9.21769 1.5498 7.19089 3.7452 6.3705C3.32511 6.0358 2.98608 5.61148 2.75323 5.12886C2.52038 4.64625 2.39966 4.11771 2.4 3.58242C2.39956 2.97716 2.55346 2.3817 2.84731 1.85164C3.14116 1.32158 3.56535 0.874205 4.08026 0.551442C4.59516 0.228678 5.18397 0.0410378 5.79162 0.00600239C6.39927 -0.0290331 7.00593 0.0897302 7.55489 0.351153C8.10386 0.612577 8.57722 1.00815 8.9307 1.50088C9.28419 1.99362 9.50627 2.5674 9.57618 3.16866C9.64609 3.76992 9.56154 4.37897 9.33046 4.93892C9.09938 5.49886 8.72929 5.99141 8.2548 6.3705C10.4502 7.19089 12 9.21769 12 11.9354Z" fill="#9509EF"/>
<rect width="7.29539" height="1.74216" transform="matrix(-0.655465 0.755226 -0.802128 -0.597152 9.17926 9.04034)" fill="#9509EF"/>
<rect width="7.29539" height="1.74216" transform="matrix(-0.655465 0.755226 -0.802128 -0.597152 9.17926 9.04034)" fill="#9509EF"/>
<rect width="7.29539" height="1.74216" transform="matrix(-0.655465 0.755226 -0.802128 -0.597152 9.17926 9.04034)" fill="#9509EF"/>
<rect width="7.32023" height="1.7364" transform="matrix(0.688736 0.725012 -0.775223 0.631688 4.53821 8.06683)" fill="#9509EF"/>
<rect width="7.32023" height="1.7364" transform="matrix(0.688736 0.725012 -0.775223 0.631688 4.53821 8.06683)" fill="#9509EF"/>
<rect width="7.32023" height="1.7364" transform="matrix(0.688736 0.725012 -0.775223 0.631688 4.53821 8.06683)" fill="#9509EF"/>
</svg>
