<?xml version="1.0"?>
<svg xmlns="http://www.w3.org/2000/svg" viewBox="0 0 24 24">
    <path style="text-indent:0;text-align:start;line-height:normal;text-transform:none;block-progression:tb;-inkscape-font-specification:Bitstream Vera Sans" d="M 11 2 C 9.707982 2 8.6057179 2.8442552 8.1875 4 L 2 4 L 2 6 L 8.1875 6 C 8.6057179 7.1557448 9.707982 8 11 8 C 12.292017 8 13.394282 7.1557449 13.8125 6 L 22 6 L 22 4 L 13.8125 4 C 13.394282 2.8442551 12.292017 2 11 2 z M 11 4 C 11.564129 4 12 4.4358709 12 5 C 12 5.5641291 11.564129 6 11 6 C 10.435871 6 10 5.5641294 10 5 C 10 4.4358706 10.435871 4 11 4 z M 17 9 C 15.707982 9 14.605718 9.8442551 14.1875 11 L 2 11 L 2 13 L 14.1875 13 C 14.605718 14.155745 15.707982 15 17 15 C 18.292018 15 19.394282 14.155745 19.8125 13 L 22 13 L 22 11 L 19.8125 11 C 19.394282 9.8442551 18.292018 9 17 9 z M 17 11 C 17.564128 11 18 11.435872 18 12 C 18 12.564128 17.564128 13 17 13 C 16.435872 13 16 12.564128 16 12 C 16 11.435872 16.435872 11 17 11 z M 7 16 C 5.7079818 16 4.6057178 16.844255 4.1875 18 L 2 18 L 2 20 L 4.1875 20 C 4.6057178 21.155745 5.7079818 22 7 22 C 8.2920182 22 9.3942822 21.155745 9.8125 20 L 22 20 L 22 18 L 9.8125 18 C 9.3942822 16.844255 8.2920182 16 7 16 z M 7 18 C 7.5641291 18 8 18.435871 8 19 C 8 19.564129 7.5641291 20 7 20 C 6.4358709 20 6 19.564129 6 19 C 6 18.435871 6.4358709 18 7 18 z"/>
</svg>
