<svg width="158" height="41" viewBox="0 0 158 41" fill="none" xmlns="http://www.w3.org/2000/svg">
<path d="M6.15533 10.3C8.16071 10.3 9.7864 8.6882 9.7864 6.69997C9.7864 4.71175 8.16071 3.09998 6.15533 3.09998C4.14995 3.09998 2.52426 4.71175 2.52426 6.69997C2.52426 8.6882 4.14995 10.3 6.15533 10.3Z" fill="#AD2CFF"/>
<path d="M29.3942 26.5C32.2017 26.5 34.4777 24.0824 34.4777 21.1C34.4777 18.1177 32.2017 15.7 29.3942 15.7C26.5866 15.7 24.3107 18.1177 24.3107 21.1C24.3107 24.0824 26.5866 26.5 29.3942 26.5Z" fill="#F5D210"/>
<path d="M66.068 20.92C66.7942 19.75 67.7927 18.85 69.0636 18.13C70.2437 17.41 71.6053 17.05 72.967 17.05C74.2379 17.05 75.5995 17.41 76.8704 18.04C78.0505 18.58 79.1398 19.48 79.9568 20.74C80.7738 22 81.2277 23.44 81.2277 25.06C81.2277 26.23 80.9553 27.49 80.4107 28.75C79.866 30.01 78.9582 31.09 77.7782 31.99C77.2335 32.44 76.598 32.71 75.7811 33.07C75.0548 33.25 74.3286 33.43 73.6024 33.43C72.3316 33.43 71.1515 33.25 70.2437 32.89C69.2451 32.53 68.3374 31.99 67.5204 31.18C66.7034 30.37 66.068 29.47 65.5233 28.48C65.0694 27.4 64.8879 26.41 64.8879 25.24V25.15C64.7971 23.53 65.251 22.18 66.068 20.92ZM67.8835 24.88C67.8835 26.5 68.3374 27.76 69.1544 28.84C69.9714 29.92 71.333 30.46 73.1485 30.46C74.0563 30.46 74.9641 30.28 75.6903 29.92C76.5073 29.56 77.0519 28.93 77.5058 28.03C77.9597 27.13 78.1413 26.05 78.1413 24.7C78.1413 23.71 77.8689 22.81 77.415 22.09C76.9612 21.37 76.3257 20.74 75.5087 20.38C74.6917 19.93 73.8748 19.75 72.967 19.75C71.333 19.75 70.0621 20.29 69.1544 21.37C68.7005 21.82 68.4281 22.45 68.065 23.08C67.9743 23.71 67.8835 24.34 67.8835 24.88Z" fill="black"/>
<path d="M86.4019 36.76C87.3097 37.03 88.1267 37.21 88.9437 37.39C89.7607 37.48 90.3961 37.57 90.9408 37.57C92.484 37.57 93.6641 37.12 94.7534 36.31C95.7519 35.41 96.2966 34.33 96.2966 32.98V25.42C96.2966 24.25 96.0243 23.35 95.5704 22.54C95.1165 21.73 94.4811 21.1 93.8456 20.56C93.1194 20.11 92.3932 19.84 91.4854 19.84C90.033 19.84 88.7621 20.29 87.7636 21.19C86.6743 22.09 86.1296 23.53 86.1296 25.33V25.78C86.1296 26.41 86.2204 26.95 86.4927 27.49C86.765 28.03 87.1282 28.57 87.582 29.11C88.4898 30.1 89.7607 30.55 91.3039 30.55C92.3024 30.55 93.5733 30.1 95.1165 29.29V32.26C94.4811 32.53 93.8456 32.8 93.1194 32.98C92.3932 33.16 91.667 33.25 91.1223 33.25C90.1238 33.25 89.1252 33.07 88.2175 32.71C87.3097 32.35 86.4019 31.72 85.585 30.82C84.1325 29.29 83.4063 27.4 83.4063 25.24C83.4063 22.45 84.2233 20.38 85.9481 19.03C87.6728 17.68 89.4883 16.96 91.4854 16.96C93.6641 16.96 95.3888 17.68 96.8413 19.03C97.5675 19.75 98.2029 20.56 98.566 21.37C99.0199 22.27 99.2015 23.17 99.2015 24.16V32.17C99.2015 32.35 99.2015 32.62 99.2015 32.8C99.1107 33.16 99.1107 33.43 99.0199 33.79C99.0199 34.15 98.8383 34.6 98.6568 35.14C98.2937 36.31 97.5675 37.39 96.2966 38.47C95.0257 39.55 93.301 40.09 91.1223 40.09C90.1238 40.09 89.3068 40 88.4898 39.91C87.6728 39.73 86.765 39.55 85.7665 39.19L86.4019 36.76Z" fill="black"/>
<path d="M101.925 17.4101H104.648V19.2101C105.011 18.6701 105.556 18.13 106.282 17.68C107.008 17.23 107.825 17.05 108.733 17.05H109.641V19.75H108.915C107.462 19.75 106.464 20.29 105.737 21.37C105.556 21.64 105.465 21.91 105.374 22.09C105.283 22.27 105.193 22.54 105.011 22.9C104.92 23.26 104.83 23.53 104.739 23.8C104.739 24.07 104.648 24.34 104.648 24.7V32.89H101.743V17.4101H101.925Z" fill="black"/>
<path d="M111.547 20.92C112.273 19.75 113.272 18.85 114.543 18.13C115.723 17.41 117.084 17.05 118.446 17.05C119.717 17.05 121.079 17.41 122.35 18.04C123.53 18.58 124.619 19.48 125.436 20.74C126.253 22 126.707 23.44 126.707 25.06C126.707 26.23 126.434 27.49 125.89 28.75C125.345 30.01 124.437 31.09 123.257 31.99C122.713 32.44 122.077 32.71 121.26 33.07C120.534 33.25 119.808 33.43 119.082 33.43C117.811 33.43 116.631 33.25 115.723 32.89C114.724 32.53 113.816 31.99 113 31.18C112.183 30.37 111.547 29.47 111.002 28.48C110.549 27.4 110.367 26.41 110.367 25.24V25.15C110.276 23.53 110.73 22.18 111.547 20.92ZM113.272 24.88C113.272 26.5 113.726 27.76 114.543 28.84C115.36 29.92 116.721 30.46 118.537 30.46C119.445 30.46 120.352 30.28 121.079 29.92C121.896 29.56 122.44 28.93 122.894 28.03C123.348 27.13 123.53 26.05 123.53 24.7C123.53 23.71 123.257 22.81 122.803 22.09C122.35 21.37 121.714 20.74 120.897 20.38C120.08 19.93 119.263 19.75 118.355 19.75C116.721 19.75 115.45 20.29 114.543 21.37C114.089 21.82 113.816 22.45 113.453 23.08C113.453 23.71 113.272 24.34 113.272 24.88Z" fill="black"/>
<path d="M129.702 20.92C130.429 19.75 131.427 18.85 132.698 18.13C133.878 17.41 135.24 17.05 136.601 17.05C137.872 17.05 139.234 17.41 140.505 18.04C141.685 18.58 142.774 19.48 143.591 20.74C144.408 22 144.862 23.44 144.862 25.06C144.862 26.23 144.59 27.49 144.045 28.75C143.5 30.01 142.593 31.09 141.413 31.99C140.868 32.44 140.233 32.71 139.416 33.07C138.689 33.25 137.963 33.43 137.237 33.43C135.966 33.43 134.786 33.25 133.878 32.89C132.88 32.53 131.972 31.99 131.155 31.18C130.338 30.37 129.702 29.47 129.158 28.48C128.704 27.4 128.522 26.41 128.522 25.24V25.15C128.522 23.53 128.885 22.18 129.702 20.92ZM131.518 24.88C131.518 26.5 131.972 27.76 132.789 28.84C133.606 29.92 134.967 30.46 136.783 30.46C137.691 30.46 138.599 30.28 139.325 29.92C140.142 29.56 140.686 28.93 141.14 28.03C141.594 27.13 141.776 26.05 141.776 24.7C141.776 23.71 141.503 22.81 141.05 22.09C140.596 21.37 139.96 20.74 139.143 20.38C138.326 19.93 137.509 19.75 136.601 19.75C134.967 19.75 133.697 20.29 132.789 21.37C132.335 21.82 132.063 22.45 131.7 23.08C131.609 23.71 131.518 24.34 131.518 24.88Z" fill="black"/>
<path d="M147.041 17.41H154.848C155.846 17.41 156.572 17.59 157.026 18.04C157.48 18.4 157.752 18.94 157.752 19.57C157.752 20.2 157.48 20.83 157.026 21.46L149.764 30.28H157.752V32.98H148.584C148.039 32.98 147.495 32.8 147.132 32.44C146.678 32.08 146.496 31.63 146.496 31C146.496 30.55 146.587 30.19 146.768 29.74C146.95 29.29 147.222 28.93 147.495 28.57L154.575 20.11H147.132V17.41H147.041Z" fill="black"/>
<path d="M48.0942 32.71V17.95C48.0942 17.05 48.185 16.24 48.3665 15.52C48.5481 14.8 48.9112 14.08 49.3651 13.36C50.0913 12.19 51.0898 11.29 52.2699 10.66C53.45 10.12 54.7209 9.76001 55.901 9.76001C57.6257 9.76001 59.1689 10.21 60.4398 11.02C61.7107 11.83 62.6184 12.91 63.2539 14.08C63.7985 15.34 64.1617 16.51 64.1617 17.68C64.1617 18.31 64.1617 18.85 64.0709 19.3C63.9801 19.66 63.9801 20.02 63.8893 20.29C63.7985 20.56 63.7078 20.83 63.5262 21.28C63.0723 22.45 62.2553 23.44 61.166 24.43C60.0767 25.24 58.6243 25.69 56.718 25.96C55.901 25.96 55.084 25.87 54.3578 25.69C53.6316 25.51 52.9053 25.24 52.1791 24.79V22L53.8131 22.81L54.9932 23.26L56.3549 23.35C57.8073 23.35 58.9874 22.81 59.8951 21.73C60.8029 20.65 61.2568 19.39 61.2568 17.77C61.2568 16.15 60.7121 14.89 59.7136 13.9C58.6243 12.91 57.4442 12.46 56.0825 12.46C55.1748 12.46 54.4485 12.64 53.7223 13.09C52.9961 13.54 52.3607 14.17 51.816 15.16C51.2714 16.15 50.999 17.23 50.999 18.67V32.71H48.0942Z" fill="black"/>
<path d="M5.24758 14.8L1.2534 9.48997C1.2534 9.48997 -0.0174739 7.50997 0.98107 5.61997C2.16117 3.00997 4.79369 3.00998 6.15534 3.27998C7.33544 3.54998 8.87864 4.44998 9.24175 6.42997C9.33253 7.32997 9.0602 8.67997 8.33398 9.93997C7.06311 11.92 5.24758 14.8 5.24758 14.8Z" fill="#AD2CFF"/>
<path d="M29.2126 32.8L24.1291 25.06C24.1291 25.06 22.5859 22.27 23.6752 19.39C25.1277 15.61 28.3048 15.43 30.1204 15.88C31.6636 16.24 33.5699 17.5 34.0238 20.47C34.2053 21.73 33.8422 23.71 32.9345 25.6C31.3912 28.57 29.2126 32.8 29.2126 32.8Z" fill="#F5D210"/>
<path d="M31.482 33.16L25.7631 24.43C25.7631 24.43 24.0383 21.19 25.3092 18.04C27.034 13.81 30.5743 13.63 32.6621 14.17C34.3869 14.62 36.5655 16.06 37.0194 19.39C37.201 20.83 36.8379 22.99 35.7485 25.06C34.0238 28.39 31.482 33.16 31.482 33.16Z" stroke="black" stroke-width="1.5" stroke-miterlimit="10"/>
<path d="M7.42621 15.16L3.06893 8.95001C3.06893 8.95001 1.70728 6.7 2.70582 4.36001C3.97669 1.30001 6.69999 1.21001 8.2432 1.57001C9.51407 1.93001 11.1481 2.92001 11.5112 5.26001C11.6927 6.34 11.3296 7.87001 10.6034 9.40001C9.33252 11.74 7.42621 15.16 7.42621 15.16Z" stroke="black" stroke-width="1.5" stroke-miterlimit="10"/>
<path d="M4.88446 16.96C4.88446 16.96 11.6927 16.51 15.3238 17.5C18.9549 18.49 19.8626 22 19.8626 23.8C19.8626 25.6 19.8626 29.2 20.7704 31C21.6782 32.8 23.4937 34.6 26.217 34.6C28.9403 34.6 35.2947 34.69 35.2947 34.69" stroke="black" stroke-width="1.22" stroke-miterlimit="10" stroke-linecap="round" stroke-dasharray="3 3"/>
</svg>
