<svg width="47" height="34" viewBox="0 0 47 34" fill="none" xmlns="http://www.w3.org/2000/svg">
<path d="M12.6484 27.9766H7.875V33H6.375V21.625H13.4219V22.8594H7.875V26.75H12.6484V27.9766ZM19.3906 28.3984H16.7188V33H15.2109V21.625H18.9766C20.2578 21.625 21.2422 21.9167 21.9297 22.5C22.6224 23.0833 22.9688 23.9323 22.9688 25.0469C22.9688 25.7552 22.776 26.3724 22.3906 26.8984C22.0104 27.4245 21.4792 27.8177 20.7969 28.0781L23.4688 32.9062V33H21.8594L19.3906 28.3984ZM16.7188 27.1719H19.0234C19.7682 27.1719 20.3594 26.9792 20.7969 26.5938C21.2396 26.2083 21.4609 25.6927 21.4609 25.0469C21.4609 24.3438 21.25 23.8047 20.8281 23.4297C20.4115 23.0547 19.8073 22.8646 19.0156 22.8594H16.7188V27.1719ZM31.5078 27.7422H26.5781V31.7734H32.3047V33H25.0781V21.625H32.2266V22.8594H26.5781V26.5156H31.5078V27.7422ZM40.6016 27.7422H35.6719V31.7734H41.3984V33H34.1719V21.625H41.3203V22.8594H35.6719V26.5156H40.6016V27.7422Z" fill="#3F3C3C"/>
<path d="M28.75 16H16.25C15.875 16 15.625 15.7333 15.625 15.3333V7.33332C15.625 6.93332 15.875 6.66666 16.25 6.66666H28.75C29.125 6.66666 29.375 6.93332 29.375 7.33332V15.3333C29.375 15.7333 29.125 16 28.75 16ZM16.875 14.6667H28.125V7.99999H16.875V14.6667Z" fill="#322F2F"/>
<path d="M29.375 8H15.625C15.25 8 15 7.73333 15 7.33333V4.66667C15 4.26667 15.25 4 15.625 4H29.375C29.75 4 30 4.26667 30 4.66667V7.33333C30 7.73333 29.75 8 29.375 8ZM16.25 6.66667H28.75V5.33333H16.25V6.66667Z" fill="#322F2F"/>
<path d="M22.5 16C22.125 16 21.875 15.7333 21.875 15.3333V4.66667C21.875 4.26667 22.125 4 22.5 4C22.875 4 23.125 4.26667 23.125 4.66667V15.3333C23.125 15.7333 22.875 16 22.5 16ZM24.375 5.33333C24 5.33333 23.75 5.06667 23.75 4.66667C23.75 4.26667 24 4 24.375 4C25.0625 4 25.625 3.4 25.625 2.66667C25.625 1.93333 25.0625 1.33333 24.375 1.33333C23.6875 1.33333 23.125 1.93333 23.125 2.66667C23.125 3.06667 22.875 3.33333 22.5 3.33333C22.125 3.33333 21.875 3.06667 21.875 2.66667C21.875 1.2 23 0 24.375 0C25.75 0 26.875 1.2 26.875 2.66667C26.875 4.13333 25.75 5.33333 24.375 5.33333Z" fill="#322F2F"/>
<path d="M20.625 5.33333C19.25 5.33333 18.125 4.13333 18.125 2.66667C18.125 1.2 19.25 0 20.625 0C22 0 23.125 1.2 23.125 2.66667C23.125 3.06667 22.875 3.33333 22.5 3.33333C22.125 3.33333 21.875 3.06667 21.875 2.66667C21.875 1.93333 21.3125 1.33333 20.625 1.33333C19.9375 1.33333 19.375 1.93333 19.375 2.66667C19.375 3.4 19.9375 4 20.625 4C21 4 21.25 4.26667 21.25 4.66667C21.25 5.06667 21 5.33333 20.625 5.33333Z" fill="#322F2F"/>
<path d="M22.5 6.66667C22.125 6.66667 21.875 6.4 21.875 6V2.66667C21.875 2.26667 22.125 2 22.5 2C22.875 2 23.125 2.26667 23.125 2.66667V6C23.125 6.4 22.875 6.66667 22.5 6.66667Z" fill="#322F2F"/>
</svg>
