<svg width="27" height="41" viewBox="0 0 27 41" fill="none" xmlns="http://www.w3.org/2000/svg">
<path d="M13.5 40.2967L12.8056 39.2917C12.2833 38.5349 0 20.671 0 13.5C0 6.05644 6.05644 0 13.5 0C20.9436 0 27 6.05644 27 13.5C27 20.671 14.7167 38.5349 14.1944 39.2917L13.5 40.2967ZM13.5 1.6875C6.98625 1.6875 1.6875 6.98625 1.6875 13.5C1.6875 19.2265 10.8717 33.3745 13.5 37.3056C16.1283 33.3745 25.3125 19.2265 25.3125 13.5C25.3125 6.98625 20.0138 1.6875 13.5 1.6875Z" fill="#212121"/>
<path d="M13.5 19.4062C10.244 19.4062 7.59375 16.7569 7.59375 13.5C7.59375 10.2431 10.244 7.59375 13.5 7.59375C16.756 7.59375 19.4062 10.2431 19.4062 13.5C19.4062 16.7569 16.756 19.4062 13.5 19.4062ZM13.5 9.28125C11.1738 9.28125 9.28125 11.1738 9.28125 13.5C9.28125 15.8262 11.1738 17.7188 13.5 17.7188C15.8262 17.7188 17.7188 15.8262 17.7188 13.5C17.7188 11.1738 15.8262 9.28125 13.5 9.28125Z" fill="#212121"/>
</svg>
