<svg width="22" height="28" viewBox="0 0 22 28" fill="none" xmlns="http://www.w3.org/2000/svg">
<path d="M11 0C5.40132 0 0.880371 4.52095 0.880371 10.1196C0.880371 12.0717 1.50395 13.9356 2.37154 15.4674L8.96657 26.8816C9.38003 27.6271 10.2137 27.9999 11 27.9999C11.7863 27.9999 12.5793 27.6271 13.0334 26.8816L19.6284 15.4742C20.5028 13.9423 21.1196 12.1122 21.1196 10.1263C21.1196 4.52773 16.5986 0 11 0ZM11 13.1087C8.96657 13.1087 7.30595 11.4481 7.30595 9.41469C7.30595 7.38128 8.96657 5.72066 11 5.72066C13.0334 5.72066 14.694 7.38128 14.694 9.41469C14.694 11.4549 13.0334 13.1087 11 13.1087Z" fill="#D36161"/>
</svg>
