<svg width="14" height="11" viewBox="0 0 14 11" fill="none" xmlns="http://www.w3.org/2000/svg">
<path d="M5.21264 10.4338C5.08206 10.434 4.95274 10.4054 4.83211 10.3496C4.71148 10.2938 4.60191 10.212 4.50971 10.1088L0.291161 5.40217C0.198852 5.29918 0.125628 5.17692 0.0756703 5.04235C0.0257128 4.90779 9.7264e-10 4.76357 0 4.61792C-9.72639e-10 4.47227 0.0257128 4.32804 0.0756703 4.19348C0.125628 4.05892 0.198852 3.93665 0.291161 3.83366C0.383471 3.73067 0.493058 3.64897 0.613666 3.59324C0.734275 3.5375 0.863542 3.50881 0.994087 3.50881C1.12463 3.50881 1.2539 3.5375 1.37451 3.59324C1.49512 3.64897 1.6047 3.73067 1.69701 3.83366L5.21264 7.75605L11.713 0.503621C11.8053 0.400631 11.9149 0.318935 12.0355 0.263198C12.1561 0.20746 12.2853 0.178772 12.4159 0.178772C12.5464 0.178772 12.6757 0.20746 12.7963 0.263198C12.9169 0.318935 13.0265 0.400631 13.1188 0.503621C13.2111 0.606611 13.2843 0.728878 13.3343 0.863441C13.3843 0.998004 13.41 1.14223 13.41 1.28788C13.41 1.43353 13.3843 1.57775 13.3343 1.71231C13.2843 1.84688 13.2111 1.96914 13.1188 2.07213L5.91556 10.1088C5.82336 10.212 5.71379 10.2938 5.59316 10.3496C5.47253 10.4054 5.34321 10.434 5.21264 10.4338Z" fill="#909090"/>
</svg>
