<svg width="30" height="33" viewBox="0 0 30 33" fill="none" xmlns="http://www.w3.org/2000/svg">
<path d="M25.63 0.374359H6.84074C5.71542 0.376085 4.63665 0.866641 3.84093 1.73848C3.0452 2.61031 2.59748 3.79228 2.5959 5.02524V23.2602H0.116272V28.3383C0.117847 29.5713 0.565576 30.7532 1.3613 31.6251C2.15702 32.4969 3.23579 32.9875 4.36111 32.9892H18.9085C20.0362 32.9875 21.1172 32.4959 21.9146 31.6222C22.712 30.7485 23.1607 29.5641 23.1622 28.3285V10.1034H29.8837V5.03502C29.8822 3.79947 29.4335 2.61501 28.6361 1.74134C27.8387 0.867671 26.7576 0.376085 25.63 0.374359V0.374359ZM4.36111 31.0323C3.70948 31.0306 3.08499 30.7462 2.62422 30.2414C2.16345 29.7365 1.90389 29.0523 1.90232 28.3383V25.2171H14.6517V28.3285C14.6514 29.2983 14.9283 30.2438 15.4435 31.0323H4.36111ZM18.9085 31.0323C18.2537 31.0323 17.6257 30.7476 17.1625 30.2406C16.6992 29.7336 16.4386 29.0459 16.4378 28.3285V23.2602H4.38195V5.02524C4.38352 4.31128 4.64308 3.62705 5.10385 3.1222C5.56462 2.61735 6.18911 2.33297 6.84074 2.33125H22.171C21.6534 3.11864 21.3753 4.06466 21.3762 5.03502V28.3285C21.3754 29.0454 21.1152 29.7326 20.6525 30.2394C20.1899 30.7463 19.5627 31.0314 18.9085 31.0323ZM28.0977 8.14648H23.1622V5.03502C23.1622 4.31794 23.4222 3.63022 23.885 3.12317C24.3478 2.61611 24.9755 2.33125 25.63 2.33125C26.2844 2.33125 26.9121 2.61611 27.3749 3.12317C27.8377 3.63022 28.0977 4.31794 28.0977 5.03502V8.14648Z" fill="#322F2F"/>
<path d="M12.8806 10.0512C13.3737 10.0512 13.7736 9.61317 13.7736 9.07278C13.7736 8.5324 13.3737 8.09433 12.8806 8.09433C12.3874 8.09433 11.9875 8.5324 11.9875 9.07278C11.9875 9.61317 12.3874 10.0512 12.8806 10.0512Z" fill="#322F2F"/>
<path d="M18.0898 13.0257H7.67126V14.9826H18.0898V13.0257Z" fill="#322F2F"/>
<path d="M16.6015 17.5918H9.15961V19.5487H16.6015V17.5918Z" fill="#322F2F"/>
</svg>
