<svg width="33" height="33" viewBox="0 0 33 33" fill="none" xmlns="http://www.w3.org/2000/svg">
<path d="M31.083 0H1.48014C0.661233 0 0 0.765592 0 1.71375V24.2045C0 25.1409 0.661233 25.9065 1.46997 25.9065H14.2318V28.109H13.2094C12.2888 28.109 11.5411 28.9747 11.5411 30.0407V31.5424C11.5411 31.8604 11.7598 32.1136 12.0344 32.1136H20.5237C20.7983 32.1136 21.017 31.8604 21.017 31.5424V30.0407C21.017 28.9747 20.2693 28.109 19.3487 28.109H18.3263V25.9065H31.0881C31.8969 25.9065 32.5581 25.1409 32.5581 24.2045V1.70197C32.553 0.759703 31.8918 0 31.083 0ZM19.3487 29.2456C19.7251 29.2456 20.0303 29.599 20.0303 30.0348V30.9653H12.5278V30.0348C12.5278 29.599 12.833 29.2456 13.2094 29.2456H19.3487ZM15.2185 28.1031V25.9006H17.3396V28.1031H15.2185ZM31.5663 24.1986C31.5663 24.5048 31.3475 24.7581 31.083 24.7581H1.46997C1.20548 24.7581 0.986763 24.5048 0.986763 24.1986V1.71375C0.986763 1.40162 1.20548 1.1425 1.48014 1.1425H31.083C31.3475 1.1425 31.5663 1.39573 31.5663 1.70197V24.1986Z" fill="#212121"/>
<path d="M29.4453 3.38037H3.10788C2.83322 3.38037 2.6145 3.63361 2.6145 3.95162V21.9489C2.6145 22.2669 2.83322 22.5202 3.10788 22.5202H29.4453C29.72 22.5202 29.9387 22.2669 29.9387 21.9489V3.95162C29.9387 3.63949 29.72 3.38037 29.4453 3.38037ZM28.952 21.3777H3.60127V4.52287H28.952V21.3777Z" fill="#212121"/>
<path d="M23.4534 14.1104H26.9071C27.1818 14.1104 27.4005 13.8572 27.4005 13.5392V7.54397C27.4005 7.22595 27.1818 6.97272 26.9071 6.97272H23.4534C23.1788 6.97272 22.9601 7.22595 22.9601 7.54397V13.5392C22.9601 13.8572 23.1839 14.1104 23.4534 14.1104ZM23.9468 8.11522H26.4137V12.9679H23.9468V8.11522ZM5.64585 9.29306H15.1422C15.4169 9.29306 15.6356 9.03982 15.6356 8.7218C15.6356 8.40379 15.4169 8.15055 15.1422 8.15055H5.64585C5.37118 8.15055 5.15247 8.40379 5.15247 8.7218C5.15247 9.03393 5.37118 9.29306 5.64585 9.29306ZM5.64585 12.5027H19.5776C19.8523 12.5027 20.071 12.2494 20.071 11.9314C20.071 11.6134 19.8523 11.3602 19.5776 11.3602H5.64585C5.37118 11.3602 5.15247 11.6134 5.15247 11.9314C5.15247 12.2494 5.37118 12.5027 5.64585 12.5027ZM5.64585 15.7182H19.5776C19.8523 15.7182 20.071 15.4649 20.071 15.1469C20.071 14.8289 19.8523 14.5757 19.5776 14.5757H5.64585C5.37118 14.5757 5.15247 14.8289 5.15247 15.1469C5.15247 15.459 5.37118 15.7182 5.64585 15.7182ZM5.64585 18.9278H19.5776C19.8523 18.9278 20.071 18.6745 20.071 18.3565C20.071 18.0385 19.8523 17.7853 19.5776 17.7853H5.64585C5.37118 17.7853 5.15247 18.0385 5.15247 18.3565C5.15247 18.6745 5.37118 18.9278 5.64585 18.9278Z" fill="#212121"/>
</svg>
