<svg width="158" height="55" viewBox="0 0 158 55" fill="none" xmlns="http://www.w3.org/2000/svg">
<path d="M6.15536 10.3001C8.16074 10.3001 9.78643 8.68832 9.78643 6.7001C9.78643 4.71187 8.16074 3.1001 6.15536 3.1001C4.14998 3.1001 2.52429 4.71187 2.52429 6.7001C2.52429 8.68832 4.14998 10.3001 6.15536 10.3001Z" fill="#AD2CFF"/>
<path d="M29.3942 26.5C32.2017 26.5 34.4777 24.0823 34.4777 21.1C34.4777 18.1176 32.2017 15.7 29.3942 15.7C26.5866 15.7 24.3107 18.1176 24.3107 21.1C24.3107 24.0823 26.5866 26.5 29.3942 26.5Z" fill="#F5D210"/>
<path d="M66.068 20.92C66.7942 19.75 67.7927 18.85 69.0636 18.13C70.2437 17.41 71.6053 17.05 72.967 17.05C74.2379 17.05 75.5995 17.41 76.8704 18.04C78.0505 18.58 79.1398 19.48 79.9568 20.74C80.7738 22 81.2277 23.44 81.2277 25.06C81.2277 26.23 80.9553 27.49 80.4107 28.75C79.866 30.01 78.9582 31.09 77.7782 31.99C77.2335 32.44 76.598 32.71 75.7811 33.07C75.0548 33.25 74.3286 33.43 73.6024 33.43C72.3316 33.43 71.1515 33.25 70.2437 32.89C69.2451 32.53 68.3374 31.99 67.5204 31.18C66.7034 30.37 66.068 29.47 65.5233 28.48C65.0694 27.4 64.8879 26.41 64.8879 25.24V25.15C64.7971 23.53 65.251 22.18 66.068 20.92ZM67.8835 24.88C67.8835 26.5 68.3374 27.76 69.1544 28.84C69.9714 29.92 71.333 30.46 73.1485 30.46C74.0563 30.46 74.9641 30.28 75.6903 29.92C76.5073 29.56 77.0519 28.93 77.5058 28.03C77.9597 27.13 78.1413 26.05 78.1413 24.7C78.1413 23.71 77.8689 22.81 77.415 22.09C76.9612 21.37 76.3257 20.74 75.5087 20.38C74.6917 19.93 73.8748 19.75 72.967 19.75C71.333 19.75 70.0621 20.29 69.1544 21.37C68.7005 21.82 68.4281 22.45 68.065 23.08C67.9743 23.71 67.8835 24.34 67.8835 24.88Z" fill="black"/>
<path d="M86.4019 36.76C87.3097 37.03 88.1267 37.21 88.9437 37.39C89.7607 37.48 90.3961 37.57 90.9408 37.57C92.484 37.57 93.6641 37.12 94.7534 36.31C95.7519 35.41 96.2966 34.33 96.2966 32.98V25.42C96.2966 24.25 96.0243 23.35 95.5704 22.54C95.1165 21.73 94.4811 21.1 93.8456 20.56C93.1194 20.11 92.3932 19.84 91.4854 19.84C90.033 19.84 88.7621 20.29 87.7636 21.19C86.6743 22.09 86.1296 23.53 86.1296 25.33V25.78C86.1296 26.41 86.2204 26.95 86.4927 27.49C86.765 28.03 87.1282 28.57 87.582 29.11C88.4898 30.1 89.7607 30.55 91.3039 30.55C92.3024 30.55 93.5733 30.1 95.1165 29.29V32.26C94.4811 32.53 93.8456 32.8 93.1194 32.98C92.3932 33.16 91.667 33.25 91.1223 33.25C90.1238 33.25 89.1252 33.07 88.2175 32.71C87.3097 32.35 86.4019 31.72 85.585 30.82C84.1325 29.29 83.4063 27.4 83.4063 25.24C83.4063 22.45 84.2233 20.38 85.9481 19.03C87.6728 17.68 89.4883 16.96 91.4854 16.96C93.6641 16.96 95.3888 17.68 96.8413 19.03C97.5675 19.75 98.2029 20.56 98.566 21.37C99.0199 22.27 99.2015 23.17 99.2015 24.16V32.17C99.2015 32.35 99.2015 32.62 99.2015 32.8C99.1107 33.16 99.1107 33.43 99.0199 33.79C99.0199 34.15 98.8383 34.6 98.6568 35.14C98.2937 36.31 97.5675 37.39 96.2966 38.47C95.0257 39.55 93.301 40.09 91.1223 40.09C90.1238 40.09 89.3068 40 88.4898 39.91C87.6728 39.73 86.765 39.55 85.7665 39.19L86.4019 36.76Z" fill="black"/>
<path d="M101.925 17.4101H104.648V19.2101C105.011 18.6701 105.556 18.13 106.282 17.68C107.008 17.23 107.825 17.05 108.733 17.05H109.641V19.75H108.915C107.462 19.75 106.464 20.29 105.737 21.37C105.556 21.64 105.465 21.91 105.374 22.09C105.283 22.27 105.193 22.54 105.011 22.9C104.92 23.26 104.83 23.53 104.739 23.8C104.739 24.07 104.648 24.34 104.648 24.7V32.89H101.743V17.4101H101.925Z" fill="black"/>
<path d="M111.547 20.92C112.273 19.75 113.272 18.85 114.543 18.13C115.723 17.41 117.084 17.05 118.446 17.05C119.717 17.05 121.079 17.41 122.35 18.04C123.53 18.58 124.619 19.48 125.436 20.74C126.253 22 126.707 23.44 126.707 25.06C126.707 26.23 126.434 27.49 125.89 28.75C125.345 30.01 124.437 31.09 123.257 31.99C122.713 32.44 122.077 32.71 121.26 33.07C120.534 33.25 119.808 33.43 119.082 33.43C117.811 33.43 116.631 33.25 115.723 32.89C114.724 32.53 113.816 31.99 113 31.18C112.183 30.37 111.547 29.47 111.002 28.48C110.549 27.4 110.367 26.41 110.367 25.24V25.15C110.276 23.53 110.73 22.18 111.547 20.92ZM113.272 24.88C113.272 26.5 113.726 27.76 114.543 28.84C115.36 29.92 116.721 30.46 118.537 30.46C119.445 30.46 120.352 30.28 121.079 29.92C121.896 29.56 122.44 28.93 122.894 28.03C123.348 27.13 123.53 26.05 123.53 24.7C123.53 23.71 123.257 22.81 122.803 22.09C122.35 21.37 121.714 20.74 120.897 20.38C120.08 19.93 119.263 19.75 118.355 19.75C116.721 19.75 115.45 20.29 114.543 21.37C114.089 21.82 113.816 22.45 113.453 23.08C113.453 23.71 113.272 24.34 113.272 24.88Z" fill="black"/>
<path d="M129.702 20.92C130.429 19.75 131.427 18.85 132.698 18.13C133.878 17.41 135.24 17.05 136.601 17.05C137.872 17.05 139.234 17.41 140.505 18.04C141.685 18.58 142.774 19.48 143.591 20.74C144.408 22 144.862 23.44 144.862 25.06C144.862 26.23 144.59 27.49 144.045 28.75C143.5 30.01 142.593 31.09 141.413 31.99C140.868 32.44 140.233 32.71 139.416 33.07C138.689 33.25 137.963 33.43 137.237 33.43C135.966 33.43 134.786 33.25 133.878 32.89C132.88 32.53 131.972 31.99 131.155 31.18C130.338 30.37 129.702 29.47 129.158 28.48C128.704 27.4 128.522 26.41 128.522 25.24V25.15C128.522 23.53 128.885 22.18 129.702 20.92ZM131.518 24.88C131.518 26.5 131.972 27.76 132.789 28.84C133.606 29.92 134.967 30.46 136.783 30.46C137.691 30.46 138.599 30.28 139.325 29.92C140.142 29.56 140.686 28.93 141.14 28.03C141.594 27.13 141.776 26.05 141.776 24.7C141.776 23.71 141.503 22.81 141.05 22.09C140.596 21.37 139.96 20.74 139.143 20.38C138.326 19.93 137.509 19.75 136.601 19.75C134.967 19.75 133.697 20.29 132.789 21.37C132.335 21.82 132.063 22.45 131.7 23.08C131.609 23.71 131.518 24.34 131.518 24.88Z" fill="black"/>
<path d="M147.041 17.4099H154.848C155.846 17.4099 156.572 17.5899 157.026 18.0399C157.48 18.3999 157.752 18.9399 157.752 19.5699C157.752 20.1999 157.48 20.8299 157.026 21.4599L149.764 30.2799H157.752V32.9799H148.584C148.039 32.9799 147.495 32.7999 147.132 32.4399C146.678 32.0799 146.496 31.6299 146.496 30.9999C146.496 30.5499 146.587 30.1899 146.768 29.7399C146.95 29.2899 147.222 28.9299 147.495 28.5699L154.575 20.1099H147.132V17.4099H147.041Z" fill="black"/>
<path d="M48.0942 32.71V17.95C48.0942 17.05 48.185 16.24 48.3665 15.52C48.5481 14.8 48.9112 14.08 49.3651 13.36C50.0913 12.19 51.0898 11.29 52.2699 10.66C53.45 10.12 54.7209 9.76001 55.901 9.76001C57.6257 9.76001 59.1689 10.21 60.4398 11.02C61.7107 11.83 62.6184 12.91 63.2539 14.08C63.7985 15.34 64.1617 16.51 64.1617 17.68C64.1617 18.31 64.1617 18.85 64.0709 19.3C63.9801 19.66 63.9801 20.02 63.8893 20.29C63.7985 20.56 63.7078 20.83 63.5262 21.28C63.0723 22.45 62.2553 23.44 61.166 24.43C60.0767 25.24 58.6243 25.69 56.718 25.96C55.901 25.96 55.084 25.87 54.3578 25.69C53.6316 25.51 52.9053 25.24 52.1791 24.79V22L53.8131 22.81L54.9932 23.26L56.3549 23.35C57.8073 23.35 58.9874 22.81 59.8951 21.73C60.8029 20.65 61.2568 19.39 61.2568 17.77C61.2568 16.15 60.7121 14.89 59.7136 13.9C58.6243 12.91 57.4442 12.46 56.0825 12.46C55.1748 12.46 54.4485 12.64 53.7223 13.09C52.9961 13.54 52.3607 14.17 51.816 15.16C51.2714 16.15 50.999 17.23 50.999 18.67V32.71H48.0942Z" fill="black"/>
<path d="M17.5932 42.8799V51.3399H16.5039V43.7799H12.5097V51.3399H11.4204V42.8799H17.5932Z" fill="black"/>
<path d="M25.1277 48.2799C25.1277 50.5299 23.5845 51.5199 22.0413 51.5199C20.4073 51.5199 19.0457 50.3499 19.0457 48.3699C19.0457 46.2999 20.4073 45.1299 22.1321 45.1299C23.8568 45.2199 25.1277 46.4799 25.1277 48.2799ZM20.2258 48.3699C20.2258 49.7199 21.0427 50.7099 22.1321 50.7099C23.2214 50.7099 24.0384 49.7199 24.0384 48.3699C24.0384 47.3799 23.4937 46.0299 22.2228 46.0299C20.7704 46.0299 20.2258 47.1999 20.2258 48.3699Z" fill="black"/>
<path d="M31.5728 45.3098V51.4298H30.4835V46.2098H27.5786V51.4298H26.4893V45.3098H31.5728Z" fill="black"/>
<path d="M33.7515 45.3098L35.1131 48.9098C35.2947 49.2698 35.3854 49.8098 35.4762 50.1698C35.567 49.8098 35.7486 49.3598 35.8393 48.9098L37.0194 45.3098H38.1995L36.5655 49.6298C35.7486 51.6998 35.2039 52.7798 34.4777 53.4098C33.933 53.8598 33.3884 54.0398 33.116 54.1298L32.8437 53.2298C33.116 53.1398 33.4791 52.9598 33.8422 52.6898C34.1146 52.4198 34.5685 52.0598 34.75 51.4298C34.8408 51.3398 34.8408 51.2498 34.8408 51.1598C34.8408 51.0698 34.8408 50.9798 34.75 50.8898L32.4806 45.3098H33.7515Z" fill="black"/>
<path d="M43.7369 45.3098V46.2098H41.8306V51.4298H40.7413V46.2098H38.835V45.3098H43.7369Z" fill="black"/>
<path d="M45.8248 45.3098V47.7398H48.7297V45.3098H49.819V51.4298H48.7297V48.6398H45.8248V51.4298H44.7355V45.3098H45.8248Z" fill="black"/>
<path d="M52.7238 45.3098V47.3798C52.9962 47.2898 53.3593 47.2898 53.7224 47.2898C55.084 47.2898 56.3549 47.8298 56.3549 49.3598C56.3549 49.9898 56.0826 50.4398 55.7195 50.7998C55.084 51.3398 54.0855 51.5198 53.2685 51.5198C52.6331 51.5198 52.0884 51.5198 51.6345 51.4298V45.3098H52.7238ZM52.7238 50.6198C52.9054 50.6198 53.1777 50.7098 53.5408 50.7098C54.3578 50.7098 55.3564 50.3498 55.3564 49.4498C55.3564 48.4598 54.4486 48.1898 53.6316 48.1898C53.2685 48.1898 52.9962 48.1898 52.8146 48.2798V50.6198H52.7238ZM58.2612 45.3098V51.4298H57.1719V45.3098H58.2612Z" fill="black"/>
<path d="M60.7122 48.5499C60.7122 50.0799 61.7107 50.7099 62.8 50.7099C63.617 50.7099 64.0709 50.5299 64.5248 50.3499L64.7064 51.1599C64.3432 51.3399 63.617 51.5199 62.6185 51.5199C60.7122 51.5199 59.6229 50.2599 59.6229 48.4599C59.6229 46.6599 60.7122 45.1299 62.5277 45.1299C64.5248 45.1299 65.0695 46.8399 65.0695 48.0099C65.0695 48.2799 65.0695 48.3699 65.0695 48.5499H60.7122ZM63.9801 47.7399C63.9801 47.0199 63.7078 45.9399 62.4369 45.9399C61.3476 45.9399 60.803 46.9299 60.7122 47.7399H63.9801Z" fill="black"/>
<path d="M72.8763 45.3098V46.2098H70.2437V51.4298H69.1544V45.3098H72.8763Z" fill="black"/>
<path d="M73.9655 47.29C73.9655 46.48 73.9655 45.85 73.8748 45.31H74.8733L74.9641 46.39C75.418 45.67 76.1442 45.22 77.1427 45.22C78.5951 45.22 79.7752 46.48 79.7752 48.28C79.7752 50.44 78.4136 51.52 76.9612 51.52C76.1442 51.52 75.418 51.16 75.0549 50.53V53.86H73.9655V47.29ZM75.0549 48.91C75.0549 49.09 75.0549 49.27 75.1456 49.36C75.3272 50.17 76.0534 50.62 76.7796 50.62C77.9597 50.62 78.6859 49.63 78.6859 48.28C78.6859 47.02 78.0505 46.03 76.8704 46.03C76.1442 46.03 75.418 46.57 75.1456 47.38C75.1456 47.56 75.0549 47.65 75.0549 47.83V48.91Z" fill="black"/>
<path d="M81.5 45.3098L82.8617 48.9098C83.0432 49.2698 83.134 49.8098 83.2248 50.1698C83.3155 49.8098 83.4971 49.3598 83.5879 48.9098L84.768 45.3098H85.9481L84.3141 49.6298C83.4971 51.6998 82.9524 52.7798 82.2262 53.4098C81.6816 53.8598 81.1369 54.0398 80.8646 54.1298L80.5922 53.2298C80.8646 53.1398 81.2277 52.9598 81.5908 52.6898C81.8631 52.4198 82.317 52.0598 82.4985 51.4298C82.5893 51.3398 82.5893 51.2498 82.5893 51.1598C82.5893 51.0698 82.5893 50.9798 82.4985 50.8898L80.2291 45.3098H81.5Z" fill="black"/>
<path d="M87.6729 47.92H88.2175C89.1253 47.92 89.7607 47.47 89.7607 46.93C89.7607 46.39 89.3068 46.03 88.5806 46.03C88.1267 46.03 87.4913 46.21 87.1282 46.48L86.8559 45.76C87.4913 45.4 88.2175 45.22 88.9437 45.22C89.8515 45.22 91.0316 45.67 91.0316 46.84C91.0316 47.56 90.3054 48.1 89.6699 48.19C90.5777 48.28 91.3039 48.82 91.3039 49.72C91.3039 51.07 89.9423 51.52 88.6714 51.52C87.9452 51.52 87.219 51.34 86.6743 51.07L86.9466 50.35C87.4005 50.62 87.9452 50.8 88.5806 50.8C89.4884 50.8 90.1238 50.35 90.1238 49.72C90.1238 48.91 89.2161 48.64 88.3083 48.64H87.7636V47.92H87.6729Z" fill="black"/>
<path d="M98.2029 48.2799C98.2029 50.5299 96.6597 51.5199 95.1165 51.5199C93.4825 51.5199 92.1208 50.3499 92.1208 48.3699C92.1208 46.2999 93.4825 45.1299 95.2073 45.1299C97.0228 45.2199 98.2029 46.4799 98.2029 48.2799ZM93.301 48.3699C93.301 49.7199 94.1179 50.7099 95.2073 50.7099C96.2966 50.7099 97.1136 49.7199 97.1136 48.3699C97.1136 47.3799 96.5689 46.0299 95.298 46.0299C93.8456 46.0299 93.301 47.1999 93.301 48.3699Z" fill="black"/>
<path d="M104.648 45.3098V51.4298H103.559V46.2098H100.654V51.4298H99.5646V45.3098H104.648Z" fill="black"/>
<path d="M107.099 48.5499C107.099 50.0799 108.098 50.7099 109.187 50.7099C110.004 50.7099 110.458 50.5299 110.912 50.3499L111.093 51.1599C110.73 51.3399 110.004 51.5199 109.005 51.5199C107.099 51.5199 106.01 50.2599 106.01 48.4599C106.01 46.6599 107.099 45.1299 108.915 45.1299C110.912 45.1299 111.456 46.8399 111.456 48.0099C111.456 48.2799 111.456 48.3699 111.456 48.5499H107.099ZM110.367 47.7399C110.367 47.0199 110.095 45.9399 108.824 45.9399C107.734 45.9399 107.19 46.9299 107.099 47.7399H110.367Z" fill="black"/>
<path d="M112.818 47.29C112.818 46.48 112.818 45.85 112.727 45.31H113.726L113.817 46.39C114.27 45.67 114.997 45.22 115.995 45.22C117.448 45.22 118.628 46.48 118.628 48.28C118.628 50.44 117.266 51.52 115.814 51.52C114.997 51.52 114.27 51.16 113.907 50.53V53.86H112.818V47.29ZM113.907 48.91C113.907 49.09 113.907 49.27 113.998 49.36C114.18 50.17 114.906 50.62 115.632 50.62C116.812 50.62 117.538 49.63 117.538 48.28C117.538 47.02 116.903 46.03 115.723 46.03C114.997 46.03 114.27 46.57 113.998 47.38C113.998 47.56 113.907 47.65 113.907 47.83V48.91Z" fill="black"/>
<path d="M120.716 48.5499C120.716 50.0799 121.714 50.7099 122.803 50.7099C123.62 50.7099 124.074 50.5299 124.528 50.3499L124.71 51.1599C124.347 51.3399 123.62 51.5199 122.622 51.5199C120.716 51.5199 119.626 50.2599 119.626 48.4599C119.626 46.6599 120.716 45.1299 122.531 45.1299C124.528 45.1299 125.073 46.8399 125.073 48.0099C125.073 48.2799 125.073 48.3699 125.073 48.5499H120.716ZM123.984 47.7399C123.984 47.0199 123.711 45.9399 122.44 45.9399C121.351 45.9399 120.806 46.9299 120.716 47.7399H123.984Z" fill="black"/>
<path d="M126.434 45.4C126.888 45.31 127.705 45.22 128.432 45.22C129.43 45.22 131.155 45.4 131.155 46.75C131.155 47.47 130.61 48.01 129.884 48.1C130.792 48.19 131.427 48.73 131.427 49.63C131.427 51.25 129.43 51.43 128.159 51.43C127.433 51.43 126.798 51.34 126.434 51.34V45.4ZM127.433 50.71C127.796 50.71 127.978 50.8 128.341 50.8C129.067 50.8 130.247 50.62 130.247 49.72C130.247 48.82 129.339 48.64 128.25 48.64H127.433V50.71ZM127.433 47.92H128.25C129.067 47.92 129.884 47.65 129.884 46.93C129.884 46.3 129.339 46.03 128.25 46.03C127.887 46.03 127.615 46.03 127.342 46.12V47.92H127.433Z" fill="black"/>
<path d="M138.326 48.2799C138.326 50.5299 136.783 51.5199 135.24 51.5199C133.606 51.5199 132.244 50.3499 132.244 48.3699C132.244 46.2999 133.606 45.1299 135.331 45.1299C137.146 45.2199 138.326 46.4799 138.326 48.2799ZM133.424 48.3699C133.424 49.7199 134.241 50.7099 135.331 50.7099C136.42 50.7099 137.237 49.7199 137.237 48.3699C137.237 47.3799 136.692 46.0299 135.421 46.0299C134.06 46.0299 133.424 47.1999 133.424 48.3699Z" fill="black"/>
<path d="M140.233 47.92H140.777C141.685 47.92 142.32 47.47 142.32 46.93C142.32 46.39 141.867 46.03 141.14 46.03C140.686 46.03 140.051 46.21 139.688 46.48L139.416 45.76C140.051 45.4 140.777 45.22 141.503 45.22C142.411 45.22 143.591 45.67 143.591 46.84C143.591 47.56 142.865 48.1 142.23 48.19C143.137 48.28 143.864 48.82 143.864 49.72C143.864 51.07 142.502 51.52 141.231 51.52C140.505 51.52 139.779 51.34 139.234 51.07L139.506 50.35C139.96 50.62 140.505 50.8 141.14 50.8C142.048 50.8 142.684 50.35 142.684 49.72C142.684 48.91 141.776 48.64 140.868 48.64H140.323V47.92H140.233Z" fill="black"/>
<path d="M146.315 45.3098V47.9198H146.587L148.856 45.3098H150.218L147.495 48.0998C148.493 48.1898 149.129 48.8198 149.583 49.9898C149.764 50.3498 149.946 50.9798 150.218 51.5198H149.038C148.856 51.2498 148.675 50.7998 148.493 50.2598C148.039 49.2698 147.495 48.8198 146.496 48.8198H146.315V51.5198H145.225V45.3998H146.315V45.3098Z" fill="black"/>
<path d="M152.306 45.31V47.92C152.306 48.91 152.306 49.54 152.215 50.35C152.578 49.63 152.76 49.18 153.214 48.46L155.12 45.31H156.391V51.43H155.301V48.82C155.301 47.83 155.301 47.29 155.392 46.3C155.029 47.11 154.757 47.56 154.394 48.19C153.849 49.18 153.123 50.35 152.487 51.34H151.217V45.22H152.306V45.31Z" fill="black"/>
<path d="M5.24758 14.8L1.2534 9.48997C1.2534 9.48997 -0.0174739 7.50997 0.98107 5.61997C2.16117 3.00997 4.79369 3.00998 6.15534 3.27998C7.33544 3.54998 8.87864 4.44998 9.24175 6.42997C9.33253 7.32997 9.0602 8.67997 8.33398 9.93997C7.06311 11.92 5.24758 14.8 5.24758 14.8Z" fill="#AD2CFF"/>
<path d="M29.2126 32.7999L24.1291 25.06C24.1291 25.06 22.5859 22.27 23.6753 19.39C25.1277 15.61 28.3049 15.43 30.1204 15.88C31.6636 16.24 33.5699 17.5 34.0238 20.47C34.2054 21.73 33.8422 23.71 32.9345 25.6C31.3913 28.57 29.2126 32.7999 29.2126 32.7999Z" fill="#F5D210"/>
<path d="M31.482 33.16L25.7631 24.43C25.7631 24.43 24.0383 21.19 25.3092 18.04C27.034 13.81 30.5743 13.63 32.6621 14.17C34.3869 14.62 36.5655 16.06 37.0194 19.39C37.201 20.83 36.8379 22.99 35.7485 25.06C34.0238 28.39 31.482 33.16 31.482 33.16Z" stroke="black" stroke-width="1.5" stroke-miterlimit="10"/>
<path d="M7.42621 15.1599L3.06893 8.94994C3.06893 8.94994 1.70728 6.69994 2.70582 4.35994C3.97669 1.29994 6.69999 1.20994 8.2432 1.56994C9.51407 1.92994 11.1481 2.91994 11.5112 5.25994C11.6927 6.33994 11.3296 7.86994 10.6034 9.39994C9.33252 11.7399 7.42621 15.1599 7.42621 15.1599Z" stroke="black" stroke-width="1.5" stroke-miterlimit="10"/>
<path d="M4.88446 16.96C4.88446 16.96 11.6927 16.51 15.3238 17.5C18.9549 18.49 19.8626 22 19.8626 23.8C19.8626 25.6 19.8626 29.1999 20.7704 30.9999C21.6782 32.7999 23.4937 34.5999 26.217 34.5999C28.9403 34.5999 35.2947 34.6899 35.2947 34.6899" stroke="black" stroke-width="1.22" stroke-miterlimit="10" stroke-linecap="round" stroke-dasharray="3 3"/>
</svg>
