<svg width="16" height="16" viewBox="0 0 16 16" fill="none" xmlns="http://www.w3.org/2000/svg">
<path d="M12.6785 6.01004C12.2856 5.90568 11.7672 5.79576 11.1837 5.74304C9.90468 5.62749 8.22949 5.78107 6.91924 6.97802C6.85489 7.0368 6.79124 7.09432 6.72845 7.15105C6.22168 7.60896 5.77155 8.01568 5.47496 8.61982C5.17757 9.22558 5.04559 9.9935 5.01975 11.1659L0.643251 11.4996C0.608151 11.4974 0.57673 11.4869 0.552435 11.4721C0.525379 11.4556 0.511544 11.4367 0.505424 11.4232C0.499644 11.4104 0.499043 11.3994 0.501231 11.3894C0.50353 11.3788 0.510614 11.3624 0.52965 11.345L0.52968 11.3449L1.81953 10.1666L2.18484 9.83288L1.85495 9.4641C1.13259 8.65659 0.680268 7.68367 0.543783 6.65974C0.407335 5.63609 0.591122 4.59638 1.07725 3.65986C1.56371 2.72271 2.33485 1.92426 3.30712 1.36239C4.27964 0.800377 5.41053 0.500094 6.568 0.5L12.6785 6.01004ZM12.6785 6.01004C12.6282 5.72466 12.5551 5.37795 12.4506 5.00288C12.1716 4.00214 11.6871 2.86836 10.875 2.12651C9.73983 1.08947 8.19122 0.500009 6.56804 0.5L12.6785 6.01004Z" stroke="black"/>
<path d="M15.4865 15.497C15.4809 15.4988 15.4742 15.5 15.4667 15.5H10.6667C9.37475 15.5 8.14172 15.0186 7.2374 14.1708C6.33418 13.324 5.83333 12.1827 5.83333 11C5.83333 9.81732 6.33418 8.67601 7.2374 7.82923C8.14171 6.98145 9.37472 6.50001 10.6666 6.5L15.4865 15.497ZM15.4865 15.497L14.4544 14.5293L14.1026 14.1995L14.4194 13.836C14.9951 13.1756 15.3561 12.3792 15.4651 11.5404C15.574 10.7018 15.4272 9.85021 15.0394 9.0836C14.6515 8.31658 14.0368 7.66376 13.2627 7.20462C12.4883 6.74536 11.588 6.50008 10.6667 6.5L15.4865 15.497Z" stroke="black"/>
</svg>
