<svg width="19" height="27" viewBox="0 0 19 27" fill="none" xmlns="http://www.w3.org/2000/svg">
<path d="M0.791667 7.93436C0.581704 7.93436 0.38034 8.02325 0.231874 8.18148C0.0834077 8.33971 0 8.55431 0 8.77808L0.000791987 13.1317C0.0609587 18.3122 3.90212 22.5687 8.71467 22.9923C8.71387 23.0041 8.70833 23.0142 8.70833 23.026V25.3125H5.10942C4.89945 25.3125 4.69809 25.4014 4.54962 25.5597C4.40116 25.7179 4.31775 25.9325 4.31775 26.1563C4.31775 26.38 4.40116 26.5946 4.54962 26.7529C4.69809 26.9111 4.89945 27 5.10942 27H13.8906C14.1005 27 14.3019 26.9111 14.4504 26.7529C14.5988 26.5946 14.6823 26.38 14.6823 26.1563C14.6823 25.9325 14.5988 25.7179 14.4504 25.5597C14.3019 25.4014 14.1005 25.3125 13.8906 25.3125H10.2917V23.026C10.2917 23.0142 10.2861 23.0041 10.2853 22.9923C15.0789 22.5696 18.9185 18.3316 18.9984 13.1747L19 8.77808C19 8.55431 18.9166 8.33971 18.7681 8.18148C18.6197 8.02325 18.4183 7.93436 18.2083 7.93436C17.9984 7.93436 17.797 8.02325 17.6485 8.18148C17.5001 8.33971 17.4167 8.55431 17.4167 8.77808L17.4151 13.1469C17.3454 17.6684 13.7948 21.347 9.5 21.347C5.18779 21.347 1.63637 17.6524 1.58412 13.1131L1.58333 8.77808C1.58333 8.55431 1.49993 8.33971 1.35146 8.18148C1.20299 8.02325 1.00163 7.93436 0.791667 7.93436Z" fill="#909090"/>
<path d="M14.9631 13.0617V5.77023C14.9631 2.58854 12.5121 0 9.50059 0C6.48909 0 4.03809 2.58854 4.03809 5.77023V13.0617C4.03809 16.2434 6.48909 18.8319 9.50059 18.8319C12.5121 18.8319 14.9631 16.2434 14.9631 13.0617ZM5.62142 13.0617V5.77023C5.62142 3.51917 7.3615 1.68745 9.50059 1.68745C11.6397 1.68745 13.3798 3.51917 13.3798 5.77023V13.0617C13.3798 15.3127 11.6397 17.1445 9.50059 17.1445C7.3615 17.1445 5.62142 15.3127 5.62142 13.0617Z" fill="#909090"/>
</svg>
