<svg width="37" height="34" viewBox="0 0 37 34" fill="none" xmlns="http://www.w3.org/2000/svg">
<path d="M5.41749 14.3777L1.61555 9.32995C1.61555 9.32995 0.40584 7.44773 1.35633 5.65106C2.47963 3.16995 4.98545 3.16995 6.28157 3.42662C7.40487 3.68329 8.8738 4.53884 9.21943 6.42106C9.30584 7.27662 9.04662 8.55995 8.35536 9.75773C7.14565 11.64 5.41749 14.3777 5.41749 14.3777Z" fill="#AD2CFF"/>
<path d="M28.2291 31.489L23.3903 24.1312C23.3903 24.1312 21.9213 21.479 22.9582 18.7412C24.3408 15.1479 27.365 14.9768 29.0932 15.4045C30.5621 15.7468 32.3767 16.9445 32.8087 19.7679C32.9815 20.9657 32.6359 22.8479 31.7718 24.6445C30.3029 27.4679 28.2291 31.489 28.2291 31.489Z" fill="#F5D210"/>
<path d="M30.3893 31.8311L24.9456 23.5322C24.9456 23.5322 23.3039 20.4522 24.5136 17.4577C26.1553 13.4366 29.5253 13.2655 31.5126 13.7789C33.1544 14.2066 35.2282 15.5755 35.6602 18.7411C35.833 20.11 35.4874 22.1633 34.4505 24.1311C32.8087 27.2966 30.3893 31.8311 30.3893 31.8311Z" stroke="black" stroke-width="1.5" stroke-miterlimit="10"/>
<path d="M7.49129 14.7201L3.34372 8.81678C3.34372 8.81678 2.0476 6.6779 2.99808 4.45345C4.20779 1.54456 6.80002 1.45901 8.26896 1.80123C9.47867 2.14345 11.034 3.08456 11.3796 5.30901C11.5525 6.33567 11.2068 7.79012 10.5156 9.24456C9.30585 11.469 7.49129 14.7201 7.49129 14.7201Z" stroke="black" stroke-width="1.5" stroke-miterlimit="10"/>
<path d="M5.07184 16.4312C5.07184 16.4312 11.5524 16.0035 15.0087 16.9446C18.465 17.8857 19.3291 21.2223 19.3291 22.9335C19.3291 24.6446 19.3291 28.0668 20.1932 29.7779C21.0573 31.489 22.7854 33.2001 25.3777 33.2001C27.9699 33.2001 34.0184 33.2857 34.0184 33.2857" stroke="black" stroke-width="1.22" stroke-miterlimit="10" stroke-linecap="round" stroke-dasharray="3 3"/>
<path d="M28.4019 25.5001C31.0744 25.5001 33.2408 23.2018 33.2408 20.3667C33.2408 17.5317 31.0744 15.2334 28.4019 15.2334C25.7295 15.2334 23.5631 17.5317 23.5631 20.3667C23.5631 23.2018 25.7295 25.5001 28.4019 25.5001Z" fill="#F5D210"/>
<path d="M6.28157 10.1001C8.19044 10.1001 9.73788 8.56788 9.73788 6.67784C9.73788 4.7878 8.19044 3.25562 6.28157 3.25562C4.3727 3.25562 2.82526 4.7878 2.82526 6.67784C2.82526 8.56788 4.3727 10.1001 6.28157 10.1001Z" fill="#AD2CFF"/>
</svg>
