<svg width="19" height="23" viewBox="0 0 23 23" fill="none" xmlns="http://www.w3.org/2000/svg">
<path d="M16.7146 16.8908C16.2177 17.3714 15.7744 17.7167 15.2938 17.2199L11.4708 13.2676L7.51849 17.0906C7.02254 17.5703 6.59004 17.2113 6.10945 16.7144C5.62885 16.2176 5.28441 15.7734 5.78035 15.2937L9.73266 11.4706L5.90963 7.51834C5.42991 7.02239 5.78893 6.58989 6.28578 6.1093C6.78263 5.62871 7.22682 5.28426 7.70654 5.7802L11.5296 9.73251L15.4819 5.90948C15.9787 5.42889 16.4103 5.78879 16.8909 6.28563C17.3715 6.78248 17.7169 7.2258 17.22 7.7064L13.2677 11.5294L17.0907 15.4817C17.5713 15.9786 17.2114 16.4102 16.7146 16.8908Z" fill="#DD2828"/>
</svg>
