<svg width="9" height="12" viewBox="0 0 9 12" fill="none" xmlns="http://www.w3.org/2000/svg">
<path d="M5.52619 6.94262C5.93679 6.94463 6.34323 6.85901 6.7192 6.6913C7.09518 6.52359 7.43231 6.27754 7.70879 5.96906C7.98527 5.66057 8.19493 5.29654 8.32419 4.90051C8.45346 4.50448 8.49946 4.08529 8.45922 3.67005C8.36826 2.92106 8.00848 2.23253 7.44883 1.73643C6.88919 1.24033 6.16906 0.971572 5.42647 0.981658H3.76637C3.29964 0.981658 2.85202 1.17007 2.52199 1.50544C2.19196 1.8408 2.00656 2.29566 2.00656 2.76995V5.75043H1.41995C1.26437 5.75043 1.11517 5.81323 1.00516 5.92502C0.895146 6.03681 0.833344 6.18843 0.833344 6.34652C0.833344 6.50462 0.895146 6.65624 1.00516 6.76802C1.11517 6.87981 1.26437 6.94262 1.41995 6.94262H2.00656V8.13481H1.41995C1.26437 8.13481 1.11517 8.19761 1.00516 8.3094C0.895146 8.42119 0.833344 8.57281 0.833344 8.7309C0.833344 8.889 0.895146 9.04062 1.00516 9.15241C1.11517 9.2642 1.26437 9.327 1.41995 9.327H2.00656V11.1153C2.00656 11.2734 2.06836 11.425 2.17837 11.5368C2.28838 11.6486 2.43758 11.7114 2.59316 11.7114C2.74874 11.7114 2.89794 11.6486 3.00795 11.5368C3.11796 11.425 3.17977 11.2734 3.17977 11.1153V9.327H6.1128C6.26837 9.327 6.41758 9.2642 6.52759 9.15241C6.6376 9.04062 6.6994 8.889 6.6994 8.7309C6.6994 8.57281 6.6376 8.42119 6.52759 8.3094C6.41758 8.19761 6.26837 8.13481 6.1128 8.13481H3.17977V6.94262H5.52619ZM3.17977 2.76995C3.17977 2.61185 3.24157 2.46023 3.35158 2.34844C3.46159 2.23665 3.6108 2.17385 3.76637 2.17385H5.42647C5.87673 2.16368 6.31496 2.32203 6.65782 2.61878C7.00068 2.91553 7.22425 3.32998 7.28601 3.78331C7.30801 4.03162 7.27867 4.28186 7.19987 4.51797C7.12107 4.75408 6.99456 4.97084 6.82846 5.15433C6.66445 5.34067 6.46382 5.48999 6.23951 5.59267C6.0152 5.69534 5.7722 5.74908 5.52619 5.75043H3.17977V2.76995Z" fill="#171717"/>
</svg>
