<svg width="28" height="33" viewBox="0 0 28 33" fill="none" xmlns="http://www.w3.org/2000/svg">
<path d="M18.5874 26.6487C17.6208 26.6487 16.8323 27.4851 16.8323 28.5103C16.8323 29.5355 17.6208 30.3718 18.5874 30.3718C19.5539 30.3718 20.3425 29.5355 20.3425 28.5103C20.3425 27.4851 19.5539 26.6487 18.5874 26.6487ZM18.5874 29.0229C18.3203 29.0229 18.1041 28.7935 18.1041 28.5103C18.1041 28.227 18.3203 27.9977 18.5874 27.9977C18.8545 27.9977 19.0707 28.227 19.0707 28.5103C19.0707 28.7935 18.8545 29.0229 18.5874 29.0229Z" fill="black"/>
<path d="M24.9591 0H12.2411C12.2284 0 12.2157 0 12.1966 0C12.1902 0 12.1839 0 12.1775 0H2.32104C1.04288 0 0 1.10615 0 2.46185V29.9132C0 31.2689 1.04288 32.375 2.32104 32.375H12.1775C12.1839 32.375 12.1902 32.375 12.1966 32.375C12.2093 32.375 12.222 32.375 12.2411 32.375H24.9591C26.2373 32.375 27.2802 31.2689 27.2802 29.9132V2.46185C27.2802 1.10615 26.2373 0 24.9591 0ZM11.1919 5.73307H26.0083V24.6185H11.1919V5.73307ZM26.0083 2.46185V4.38411H11.1919V2.46185C11.1919 1.84807 11.6624 1.34896 12.2411 1.34896H24.9591C25.5378 1.34896 26.0083 1.84807 26.0083 2.46185ZM2.32104 31.026C1.74237 31.026 1.2718 30.5269 1.2718 29.9132V2.46185C1.2718 1.84807 1.74237 1.34896 2.32104 1.34896H10.1045C9.94549 1.6862 9.85646 2.06391 9.85646 2.46185V29.9132C9.85646 30.3111 9.94549 30.6888 10.1045 31.026H2.32104ZM24.9591 31.026H12.2411C11.6624 31.026 11.1919 30.5269 11.1919 29.9132V25.9674H26.0083V29.9132C26.0083 30.5269 25.5378 31.026 24.9591 31.026Z" fill="black"/>
</svg>
