<svg width="21" height="18" viewBox="0 0 21 18" fill="none" xmlns="http://www.w3.org/2000/svg">
<path d="M15.624 2.15838H17.2035C18.2482 2.15838 19.1975 2.57772 19.8853 3.25281C20.5729 3.92791 21 4.86026 21 5.88565V14.2726C21 15.2983 20.573 16.2304 19.8854 16.9055C19.1977 17.5807 18.2482 18 17.2035 18H3.79653C2.75183 18 1.80246 17.5807 1.11483 16.9055C0.427117 16.2304 0 15.2983 0 14.2726V5.88565C0 4.85998 0.427117 3.92781 1.11483 3.25272C1.80246 2.57753 2.75183 2.15838 3.79653 2.15838H5.37613C5.5254 1.68355 5.81705 1.26581 6.17576 0.928125C6.78568 0.353585 7.62295 0 8.27119 0H12.7287C13.377 0 14.2143 0.353585 14.8241 0.928125C15.1828 1.26581 15.4744 1.68355 15.6239 2.15838H15.624ZM10.5 5.53639C11.7774 5.53639 12.9345 6.04499 13.7718 6.86701C14.6092 7.68913 15.1272 8.82504 15.1272 10.0793C15.1272 11.3334 14.6092 12.4693 13.7718 13.2915C12.9343 14.1135 11.7776 14.6221 10.5 14.6221C9.22239 14.6221 8.06568 14.1135 7.22822 13.2915C6.39094 12.4693 5.8729 11.3335 5.8729 10.0793C5.8729 8.82495 6.39094 7.68922 7.22822 6.86701C8.06549 6.04499 9.22258 5.53639 10.5 5.53639ZM12.7653 7.85525C12.1858 7.28626 11.3848 6.93436 10.5 6.93436C9.6153 6.93436 8.81424 7.28626 8.23469 7.85525C7.65533 8.42424 7.29672 9.2107 7.29672 10.0793C7.29672 10.9478 7.65533 11.7343 8.23469 12.3032C8.81424 12.8721 9.6153 13.2242 10.5 13.2242C11.3846 13.2242 12.1858 12.8721 12.7653 12.3032C13.3449 11.7343 13.7033 10.9479 13.7033 10.0793C13.7033 9.21061 13.3449 8.42424 12.7653 7.85525ZM17.2035 3.55626H15.0203C14.6272 3.55626 14.3084 3.24331 14.3084 2.85737C14.3084 2.51234 14.1111 2.18811 13.8398 1.93272C13.4885 1.60171 13.046 1.39797 12.7288 1.39797H8.27129C7.95407 1.39797 7.51162 1.60171 7.16029 1.93272C6.88896 2.1882 6.69169 2.51234 6.69169 2.85737C6.69169 3.24331 6.37293 3.55626 5.97983 3.55626H3.79662C3.14474 3.55626 2.55159 3.8186 2.1214 4.24095C1.69122 4.66339 1.42391 5.24574 1.42391 5.88574V14.2727C1.42391 14.9126 1.69122 15.4951 2.1214 15.9174C2.55168 16.3398 3.14484 16.6022 3.79662 16.6022H17.2036C17.8555 16.6022 18.4488 16.3398 18.8789 15.9174C19.3092 15.495 19.5763 14.9127 19.5763 14.2727V5.88574C19.5763 5.24592 19.3091 4.66339 18.8788 4.24114C18.4485 3.8187 17.8554 3.55626 17.2036 3.55626H17.2035Z" fill="#909090"/>
</svg>
