<svg width="18" height="18" viewBox="0 0 22 22" fill="none" xmlns="http://www.w3.org/2000/svg">
<path d="M15.8196 15.9959C15.3227 16.4765 14.8794 16.8218 14.3988 16.325L10.5758 12.3727L6.62347 16.1957C6.12752 16.6754 5.69502 16.3164 5.21443 15.8195C4.73384 15.3227 4.38939 14.8785 4.88533 14.3988L8.83764 10.5757L5.01461 6.62344C4.53489 6.12749 4.89391 5.695 5.39076 5.2144C5.88761 4.73381 6.3318 4.38936 6.81153 4.88531L10.6346 8.83761L14.5869 5.01459C15.0837 4.53399 15.5153 4.89389 15.9959 5.39073C16.4765 5.88758 16.8218 6.3309 16.325 6.8115L12.3727 10.6345L16.1957 14.5868C16.6763 15.0837 16.3164 15.5153 15.8196 15.9959Z" fill="#DD2828"/>
</svg>
