<svg width="16" height="16" viewBox="0 0 16 16" fill="none" xmlns="http://www.w3.org/2000/svg">
<path d="M8.00017 1.33334C6.68162 1.33334 5.39269 1.72434 4.29636 2.45688C3.20004 3.18942 2.34555 4.23061 1.84097 5.44879C1.33638 6.66696 1.20436 8.0074 1.4616 9.30061C1.71883 10.5938 2.35377 11.7817 3.28612 12.7141C4.21847 13.6464 5.40636 14.2813 6.69956 14.5386C7.99277 14.7958 9.33322 14.6638 10.5514 14.1592C11.7696 13.6546 12.8108 12.8001 13.5433 11.7038C14.2758 10.6075 14.6668 9.31855 14.6668 8.00001C14.6668 7.12453 14.4944 6.25762 14.1594 5.44879C13.8243 4.63995 13.3333 3.90502 12.7142 3.28596C12.0952 2.66691 11.3602 2.17584 10.5514 1.84081C9.74255 1.50578 8.87565 1.33334 8.00017 1.33334ZM8.00017 13.3333C6.94533 13.3333 5.91419 13.0205 5.03712 12.4345C4.16006 11.8485 3.47648 11.0155 3.07281 10.041C2.66914 9.06645 2.56352 7.99409 2.76931 6.95953C2.9751 5.92496 3.48305 4.97465 4.22893 4.22877C4.97481 3.48289 5.92512 2.97494 6.95968 2.76916C7.99425 2.56337 9.06661 2.66899 10.0411 3.07265C11.0157 3.47632 11.8486 4.15991 12.4347 5.03697C13.0207 5.91403 13.3335 6.94518 13.3335 8.00001C13.3335 9.4145 12.7716 10.7711 11.7714 11.7712C10.7712 12.7714 9.41465 13.3333 8.00017 13.3333Z" fill="#DD2828"/>
<path d="M8.00016 11.3333C8.36835 11.3333 8.66683 11.0349 8.66683 10.6667C8.66683 10.2985 8.36835 10 8.00016 10C7.63197 10 7.3335 10.2985 7.3335 10.6667C7.3335 11.0349 7.63197 11.3333 8.00016 11.3333Z" fill="#DD2828"/>
<path d="M8.00016 4.66666C7.82335 4.66666 7.65378 4.73689 7.52876 4.86192C7.40373 4.98694 7.3335 5.15651 7.3335 5.33332V8.66666C7.3335 8.84347 7.40373 9.01304 7.52876 9.13806C7.65378 9.26309 7.82335 9.33332 8.00016 9.33332C8.17697 9.33332 8.34654 9.26309 8.47157 9.13806C8.59659 9.01304 8.66683 8.84347 8.66683 8.66666V5.33332C8.66683 5.15651 8.59659 4.98694 8.47157 4.86192C8.34654 4.73689 8.17697 4.66666 8.00016 4.66666Z" fill="#DD2828"/>
</svg>
