<svg width="15" height="14" viewBox="0 0 15 14" fill="none" xmlns="http://www.w3.org/2000/svg">
<path d="M14.1081 13.1586L14.1081 13.1587C14.1361 13.1866 14.1551 13.2223 14.1628 13.261C14.1706 13.2998 14.1666 13.34 14.1515 13.3766C14.1363 13.4131 14.1107 13.4443 14.0778 13.4663C14.045 13.4883 14.0063 13.5 13.9667 13.5H7.66675C5.94284 13.5 4.28954 12.8152 3.07055 11.5962C1.85157 10.3772 1.16675 8.72391 1.16675 7C1.16675 5.27609 1.85157 3.62279 3.07055 2.40381C4.28953 1.18483 5.94281 0.500011 7.66671 0.5L14.1081 13.1586ZM14.1081 13.1586L12.7334 11.7839L12.4136 11.4641M14.1081 13.1586L12.4136 11.4641M12.4136 11.4641L12.6998 11.114M12.4136 11.4641L12.6998 11.114M12.6998 11.114C13.4782 10.1614 13.9704 9.0075 14.1191 7.78633C14.2678 6.56517 14.0669 5.32687 13.5398 4.21532C13.0127 3.10377 12.1811 2.16461 11.1414 1.50694C10.1018 0.849278 8.89692 0.500109 7.66675 0.5L12.6998 11.114Z" fill="#FFDC1C" stroke="#FFD12C"/>
</svg>
