<svg width="24" height="26" viewBox="0 0 24 26" fill="none" xmlns="http://www.w3.org/2000/svg">
<path d="M23.6758 13.6758C23.8439 12.5664 23.2095 11.4504 21.9712 10.7031L5.43795 0.721671C4.30568 0.0394166 3.19317 -0.0665433 2.30548 0.42399C1.41024 0.918528 0.903371 1.92861 0.878254 3.26826L0.691553 13.1176L0.512155 22.5963C0.491641 23.6493 0.779634 24.5155 1.34335 25.101C2.2178 26.0092 3.57634 26.0883 4.97953 25.3142L21.859 15.9661C22.8939 15.3946 23.5394 14.5815 23.6758 13.6758V13.6758ZM21.1025 14.5975L4.22219 23.9453C3.86511 24.1421 2.97826 24.5444 2.46958 24.0161C2.20332 23.7395 2.06282 23.2458 2.07513 22.6256L2.23998 13.9288L8.88516 14.0545C8.98891 14.0582 9.09238 14.0413 9.18952 14.0046C9.28666 13.968 9.37553 13.9124 9.45094 13.841C9.52636 13.7697 9.5868 13.684 9.62876 13.589C9.67071 13.4941 9.69333 13.3917 9.6953 13.2879C9.69727 13.1841 9.67854 13.0809 9.64022 12.9845C9.60189 12.888 9.54474 12.8001 9.47208 12.7259C9.39942 12.6518 9.31273 12.5928 9.21705 12.5525C9.12136 12.5122 9.01861 12.4914 8.91479 12.4912L2.26961 12.3656L2.44122 3.29815C2.45537 2.55135 2.68143 2.00266 3.06116 1.79281C3.43389 1.58698 4.00602 1.68464 4.63011 2.06115L21.1636 12.0428C21.3767 12.1681 21.5726 12.3204 21.7464 12.496C21.9541 12.7117 22.1891 13.0504 22.1297 13.4425C22.0674 13.8563 21.7026 14.2661 21.1025 14.5975V14.5975Z" fill="#909090"/>
</svg>
