<svg width="20" height="20" viewBox="0 0 20 20" fill="none" xmlns="http://www.w3.org/2000/svg">
<path d="M14.371 13.8571C13.2139 15.1429 11.671 15.7857 9.99959 15.7857C8.32816 15.7857 6.7853 15.0143 5.62816 13.8571C5.37102 13.6 5.37102 13.2143 5.62816 12.9571C5.8853 12.7 6.27102 12.7 6.52816 12.9571C7.42816 13.9857 8.71387 14.5 9.99959 14.5C11.2853 14.5 12.571 13.9857 13.3424 12.9571C13.5996 12.7 13.9853 12.7 14.2424 12.9571C14.4996 13.2143 14.4996 13.6 14.371 13.8571Z" fill="#909090"/>
<path d="M10 1C4.98571 1 1 4.98571 1 10C1 15.0143 4.98571 19 10 19C15.0143 19 19 15.0143 19 10C19 4.98571 15.0143 1 10 1ZM4.85714 7.42857C4.85714 6.65714 5.37143 6.14286 6.14286 6.14286C6.91429 6.14286 7.42857 6.65714 7.42857 7.42857C7.42857 8.2 6.91429 8.71429 6.14286 8.71429C5.37143 8.71429 4.85714 8.2 4.85714 7.42857ZM13.8571 8.71429C13.0857 8.71429 12.5714 8.2 12.5714 7.42857C12.5714 6.65714 13.0857 6.14286 13.8571 6.14286C14.6286 6.14286 15.1429 6.65714 15.1429 7.42857C15.1429 8.2 14.5 8.71429 13.8571 8.71429Z" stroke="#909090" stroke-miterlimit="10"/>
</svg>
