<svg width="23" height="21" viewBox="0 0 23 21" fill="none" xmlns="http://www.w3.org/2000/svg">
<path d="M11.3334 0C9.25153 0.000163531 7.21247 0.564202 5.45311 1.62658C3.69374 2.68896 2.2863 4.20607 1.39431 6.00164C0.502321 7.7972 0.162399 9.79751 0.414042 11.7702C0.665685 13.7428 1.49856 15.6068 2.8159 17.1456L0.655677 19.2076C0.501838 19.3545 0.397069 19.5416 0.354617 19.7452C0.312165 19.9489 0.333939 20.16 0.417184 20.3518C0.500429 20.5437 0.641407 20.7077 0.822288 20.823C1.00317 20.9384 1.21583 21 1.43338 21H11.3334C14.2508 21 17.0486 19.8938 19.1115 17.9246C21.1744 15.9555 22.3334 13.2848 22.3334 10.5C22.3334 7.71523 21.1744 5.04451 19.1115 3.07538C17.0486 1.10625 14.2508 0 11.3334 0ZM6.93338 11.55C6.71582 11.55 6.50314 11.4884 6.32225 11.373C6.14136 11.2577 6.00036 11.0937 5.91711 10.9018C5.83385 10.71 5.81207 10.4988 5.85451 10.2952C5.89696 10.0915 6.00172 9.90438 6.15556 9.75754C6.3094 9.61069 6.5054 9.51069 6.71878 9.47017C6.93216 9.42966 7.15333 9.45045 7.35433 9.52993C7.55533 9.6094 7.72712 9.74398 7.84799 9.91665C7.96886 10.0893 8.03338 10.2923 8.03338 10.5C8.03338 10.7785 7.91748 11.0455 7.71119 11.2425C7.5049 11.4394 7.22511 11.55 6.93338 11.55ZM11.3334 11.55C11.1158 11.55 10.9031 11.4884 10.7222 11.373C10.5414 11.2577 10.4004 11.0937 10.3171 10.9018C10.2339 10.71 10.2121 10.4988 10.2545 10.2952C10.297 10.0915 10.4017 9.90438 10.5556 9.75754C10.7094 9.61069 10.9054 9.51069 11.1188 9.47017C11.3322 9.42966 11.5533 9.45045 11.7543 9.52993C11.9553 9.6094 12.1271 9.74398 12.248 9.91665C12.3689 10.0893 12.4334 10.2923 12.4334 10.5C12.4334 10.7785 12.3175 11.0455 12.1112 11.2425C11.9049 11.4394 11.6251 11.55 11.3334 11.55ZM15.7334 11.55C15.5158 11.55 15.3031 11.4884 15.1222 11.373C14.9414 11.2577 14.8004 11.0937 14.7171 10.9018C14.6339 10.71 14.6121 10.4988 14.6545 10.2952C14.697 10.0915 14.8017 9.90438 14.9556 9.75754C15.1094 9.61069 15.3054 9.51069 15.5188 9.47017C15.7322 9.42966 15.9533 9.45045 16.1543 9.52993C16.3553 9.6094 16.5271 9.74398 16.648 9.91665C16.7689 10.0893 16.8334 10.2923 16.8334 10.5C16.8334 10.7785 16.7175 11.0455 16.5112 11.2425C16.3049 11.4394 16.0251 11.55 15.7334 11.55Z" fill="#DDDDDD"/>
<path d="M11.3333 11.55C11.9408 11.55 12.4333 11.0799 12.4333 10.5C12.4333 9.92005 11.9408 9.44995 11.3333 9.44995C10.7258 9.44995 10.2333 9.92005 10.2333 10.5C10.2333 11.0799 10.7258 11.55 11.3333 11.55Z" fill="#909090"/>
<path d="M6.93334 11.55C7.54086 11.55 8.03334 11.0799 8.03334 10.5C8.03334 9.92005 7.54086 9.44995 6.93334 9.44995C6.32583 9.44995 5.83334 9.92005 5.83334 10.5C5.83334 11.0799 6.32583 11.55 6.93334 11.55Z" fill="#909090"/>
<path d="M15.7334 11.55C16.3409 11.55 16.8334 11.0799 16.8334 10.5C16.8334 9.92005 16.3409 9.44995 15.7334 9.44995C15.1259 9.44995 14.6334 9.92005 14.6334 10.5C14.6334 11.0799 15.1259 11.55 15.7334 11.55Z" fill="#909090"/>
</svg>
