<svg width="35" height="33" viewBox="0 0 35 33" fill="none" xmlns="http://www.w3.org/2000/svg">
<path d="M30.3023 18.7434V4.32902H14.1457L10.5604 0.252167H0.186035V28.7901H19.7C21.0086 31.2064 23.6588 32.867 26.7171 32.867C31.066 32.867 34.6047 29.5138 34.6047 25.3928C34.6047 22.4955 32.8522 19.9835 30.3023 18.7434ZM19.1285 27.4312H1.62015V1.61112H9.88922L13.4745 5.68797H28.8682V18.2019C28.8231 18.1896 28.7757 18.1856 28.7306 18.174C28.4775 18.1106 28.2212 18.0593 27.9626 18.0205C27.8744 18.0069 27.7862 17.9926 27.6973 17.9817C27.372 17.9412 27.0444 17.9198 26.7164 17.9179C22.3674 17.9179 18.8287 21.2711 18.8287 25.3921C18.8287 25.7074 18.856 26.0165 18.8962 26.3216C18.9076 26.4059 18.9227 26.4888 18.937 26.573C18.9786 26.8197 19.0324 27.0622 19.0991 27.3007C19.112 27.3435 19.1163 27.3884 19.1285 27.4312ZM26.7171 31.5081C24.0697 31.5081 21.7916 29.9881 20.7978 27.8226C20.7186 27.6489 20.6481 27.4718 20.5863 27.2919C20.5805 27.2749 20.5726 27.2593 20.5669 27.2423C20.5057 27.0588 20.4538 26.8726 20.4113 26.6845C20.4077 26.6688 20.402 26.6539 20.3984 26.6383C20.3593 26.4567 20.3292 26.2735 20.308 26.0892C20.3052 26.0661 20.2994 26.0437 20.2966 26.0206C20.2748 25.812 20.2638 25.6024 20.2636 25.3928C20.2636 22.0212 23.159 19.2775 26.7171 19.2775C26.9394 19.2775 27.1602 19.2884 27.3796 19.3094C27.404 19.3121 27.4277 19.3176 27.4521 19.3203C27.6464 19.3414 27.84 19.3679 28.0314 19.4059C28.0479 19.4093 28.0637 19.4147 28.0802 19.4181C28.2781 19.4589 28.4746 19.5065 28.6689 19.5656C28.6868 19.571 28.7033 19.5785 28.7212 19.5839C28.9098 19.643 29.097 19.709 29.2813 19.7844C31.5672 20.7261 33.1706 22.8848 33.1706 25.3934C33.1706 28.7643 30.2751 31.5081 26.7171 31.5081Z" fill="#212121"/>
<path d="M27.4341 21.9954H26V24.7133H23.1318V26.0722H26V28.7901H27.4341V26.0722H30.3023V24.7133H27.4341V21.9954Z" fill="#212121"/>
</svg>
