<svg width="33" height="37" viewBox="0 0 33 37" fill="none" xmlns="http://www.w3.org/2000/svg">
<path fill-rule="evenodd" clip-rule="evenodd" d="M23.7543 36.8249H3.15684C2.37495 36.8496 1.61603 36.5319 1.04618 35.9412C0.476334 35.3506 0.14197 34.5352 0.116272 33.6734V3.52676C0.142077 2.6651 0.476488 1.8498 1.04633 1.25926C1.61616 0.66872 2.37502 0.351035 3.15684 0.375724H23.7543C24.5362 0.35079 25.2953 0.668365 25.8653 1.25893C26.4353 1.8495 26.7699 2.66494 26.7957 3.52676V8.64514C26.7957 8.88572 26.709 9.11645 26.5546 9.28657C26.4003 9.45669 26.191 9.55227 25.9727 9.55227C25.7544 9.55227 25.5451 9.45669 25.3908 9.28657C25.2364 9.11645 25.1497 8.88572 25.1497 8.64514V3.52676C25.1222 3.14759 24.9604 2.7956 24.6992 2.54696C24.4381 2.29832 24.0986 2.17302 23.7543 2.19818H3.15684C2.81259 2.17303 2.47321 2.29835 2.21219 2.54702C1.95116 2.79568 1.7895 3.14767 1.76221 3.52676V33.6734C1.7894 34.0526 1.95101 34.4047 2.21205 34.6535C2.47309 34.9022 2.81253 35.0276 3.15684 35.0025H23.7543C23.9735 35.0025 24.1838 35.0985 24.3388 35.2694C24.4939 35.4402 24.581 35.672 24.581 35.9137C24.581 36.1554 24.4939 36.3871 24.3388 36.558C24.1838 36.7289 23.9735 36.8249 23.7543 36.8249ZM15.2489 20.4907H11.9566C11.7373 20.4907 11.527 20.3947 11.372 20.2238C11.217 20.0529 11.1299 19.8211 11.1299 19.5794C11.1299 19.3378 11.217 19.106 11.372 18.9351C11.527 18.7642 11.7373 18.6682 11.9566 18.6682H15.2489C15.4681 18.6682 15.6784 18.7642 15.8334 18.9351C15.9884 19.106 16.0755 19.3378 16.0755 19.5794C16.0755 19.8211 15.9884 20.0529 15.8334 20.2238C15.6784 20.3947 15.4681 20.4907 15.2489 20.4907ZM7.8417 20.4907H4.54982C4.33056 20.4907 4.12029 20.3947 3.96526 20.2238C3.81022 20.0529 3.72313 19.8211 3.72313 19.5794C3.72313 19.3378 3.81022 19.106 3.96526 18.9351C4.12029 18.7642 4.33056 18.6682 4.54982 18.6682H7.8417C7.95026 18.6683 8.05774 18.692 8.158 18.7379C8.25826 18.7838 8.34933 18.851 8.42602 18.9357C8.50271 19.0204 8.56351 19.121 8.60495 19.2316C8.6464 19.3422 8.66767 19.4607 8.66756 19.5804C8.66746 19.7 8.64597 19.8185 8.60432 19.929C8.56267 20.0395 8.50169 20.1399 8.42485 20.2244C8.34801 20.309 8.25681 20.376 8.15647 20.4217C8.05613 20.4673 7.94861 20.4908 7.84005 20.4907H7.8417ZM15.2489 24.1356H11.9566C11.7373 24.1356 11.527 24.0396 11.372 23.8687C11.217 23.6978 11.1299 23.466 11.1299 23.2244C11.1299 22.9827 11.217 22.7509 11.372 22.58C11.527 22.4091 11.7373 22.3131 11.9566 22.3131H15.2489C15.4681 22.3131 15.6784 22.4091 15.8334 22.58C15.9884 22.7509 16.0755 22.9827 16.0755 23.2244C16.0755 23.466 15.9884 23.6978 15.8334 23.8687C15.6784 24.0396 15.4681 24.1356 15.2489 24.1356ZM7.8417 24.1356H4.54982C4.33056 24.1356 4.12029 24.0396 3.96526 23.8687C3.81022 23.6978 3.72313 23.466 3.72313 23.2244C3.72313 22.9827 3.81022 22.7509 3.96526 22.58C4.12029 22.4091 4.33056 22.3131 4.54982 22.3131H7.8417C7.95026 22.3132 8.05774 22.3369 8.158 22.3828C8.25826 22.4287 8.34933 22.496 8.42602 22.5807C8.50271 22.6654 8.56351 22.7659 8.60495 22.8765C8.6464 22.9871 8.66767 23.1056 8.66756 23.2253C8.66746 23.3449 8.64597 23.4634 8.60432 23.5739C8.56267 23.6844 8.50169 23.7848 8.42485 23.8693C8.34801 23.9539 8.25681 24.0209 8.15647 24.0666C8.05613 24.1123 7.94861 24.1357 7.84005 24.1356H7.8417ZM15.2489 27.7805H11.9566C11.7373 27.7805 11.527 27.6845 11.372 27.5136C11.217 27.3427 11.1299 27.111 11.1299 26.8693C11.1299 26.6276 11.217 26.3958 11.372 26.2249C11.527 26.0541 11.7373 25.958 11.9566 25.958H15.2489C15.4681 25.958 15.6784 26.0541 15.8334 26.2249C15.9884 26.3958 16.0755 26.6276 16.0755 26.8693C16.0755 27.111 15.9884 27.3427 15.8334 27.5136C15.6784 27.6845 15.4681 27.7805 15.2489 27.7805ZM7.8417 27.7805H4.54982C4.33056 27.7805 4.12029 27.6845 3.96526 27.5136C3.81022 27.3427 3.72313 27.111 3.72313 26.8693C3.72313 26.6276 3.81022 26.3958 3.96526 26.2249C4.12029 26.0541 4.33056 25.958 4.54982 25.958H7.8417C7.95026 25.9582 8.05774 25.9819 8.158 26.0278C8.25826 26.0737 8.34933 26.1409 8.42602 26.2256C8.50271 26.3103 8.56351 26.4108 8.60495 26.5214C8.6464 26.632 8.66767 26.7505 8.66756 26.8702C8.66746 26.9899 8.64597 27.1083 8.60432 27.2188C8.56267 27.3293 8.50169 27.4297 8.42485 27.5143C8.34801 27.5988 8.25681 27.6658 8.15647 27.7115C8.05613 27.7572 7.94861 27.7806 7.84005 27.7805H7.8417ZM22.4588 9.55591H19.3637C19.1445 9.55591 18.9342 9.45991 18.7791 9.28902C18.6241 9.11813 18.537 8.88635 18.537 8.64468C18.537 8.40301 18.6241 8.17123 18.7791 8.00034C18.9342 7.82945 19.1445 7.73345 19.3637 7.73345H22.4588C22.6781 7.73369 22.8883 7.82993 23.0432 8.00099C23.198 8.17205 23.2849 8.40392 23.2847 8.64559C23.2845 8.88726 23.1972 9.11894 23.042 9.28966C22.8868 9.46038 22.6764 9.55615 22.4572 9.55591H22.4588ZM15.2489 9.55591H11.9566C11.7373 9.55591 11.527 9.45991 11.372 9.28902C11.217 9.11813 11.1299 8.88635 11.1299 8.64468C11.1299 8.40301 11.217 8.17123 11.372 8.00034C11.527 7.82945 11.7373 7.73345 11.9566 7.73345H15.2489C15.4681 7.73345 15.6784 7.82945 15.8334 8.00034C15.9884 8.17123 16.0755 8.40301 16.0755 8.64468C16.0755 8.88635 15.9884 9.11813 15.8334 9.28902C15.6784 9.45991 15.4681 9.55591 15.2489 9.55591ZM7.8417 9.55591H4.54982C4.33056 9.55591 4.12029 9.45991 3.96526 9.28902C3.81022 9.11813 3.72313 8.88635 3.72313 8.64468C3.72313 8.40301 3.81022 8.17123 3.96526 8.00034C4.12029 7.82945 4.33056 7.73345 4.54982 7.73345H7.8417C7.95026 7.73357 8.05774 7.75726 8.158 7.80316C8.25826 7.84907 8.34933 7.91629 8.42602 8.00099C8.50271 8.08569 8.56351 8.18621 8.60495 8.29681C8.6464 8.40741 8.66767 8.52593 8.66756 8.64559C8.66746 8.76526 8.64597 8.88373 8.60432 8.99424C8.56267 9.10474 8.50169 9.20513 8.42485 9.28966C8.34801 9.37419 8.25681 9.44121 8.15647 9.4869C8.05613 9.53258 7.94861 9.55603 7.84005 9.55591H7.8417ZM15.2489 13.2008H11.9566C11.7373 13.2008 11.527 13.1048 11.372 12.9339C11.217 12.763 11.1299 12.5313 11.1299 12.2896C11.1299 12.0479 11.217 11.8162 11.372 11.6453C11.527 11.4744 11.7373 11.3784 11.9566 11.3784H15.2489C15.4681 11.3784 15.6784 11.4744 15.8334 11.6453C15.9884 11.8162 16.0755 12.0479 16.0755 12.2896C16.0755 12.5313 15.9884 12.763 15.8334 12.9339C15.6784 13.1048 15.4681 13.2008 15.2489 13.2008ZM7.8417 13.2008H4.54982C4.33056 13.2008 4.12029 13.1048 3.96526 12.9339C3.81022 12.763 3.72313 12.5313 3.72313 12.2896C3.72313 12.0479 3.81022 11.8162 3.96526 11.6453C4.12029 11.4744 4.33056 11.3784 4.54982 11.3784H7.8417C7.95026 11.3785 8.05774 11.4022 8.158 11.4481C8.25826 11.494 8.34933 11.5612 8.42602 11.6459C8.50271 11.7306 8.56351 11.8311 8.60495 11.9417C8.6464 12.0523 8.66767 12.1708 8.66756 12.2905C8.66746 12.4102 8.64597 12.5286 8.60432 12.6392C8.56267 12.7497 8.50169 12.8501 8.42485 12.9346C8.34801 13.0191 8.25681 13.0861 8.15647 13.1318C8.05613 13.1775 7.94861 13.201 7.84005 13.2008H7.8417ZM15.2489 16.8457H11.9566C11.7373 16.8457 11.527 16.7497 11.372 16.5789C11.217 16.408 11.1299 16.1762 11.1299 15.9345C11.1299 15.6928 11.217 15.4611 11.372 15.2902C11.527 15.1193 11.7373 15.0233 11.9566 15.0233H15.2489C15.4681 15.0233 15.6784 15.1193 15.8334 15.2902C15.9884 15.4611 16.0755 15.6928 16.0755 15.9345C16.0755 16.1762 15.9884 16.408 15.8334 16.5789C15.6784 16.7497 15.4681 16.8457 15.2489 16.8457ZM7.8417 16.8457H4.54982C4.33056 16.8457 4.12029 16.7497 3.96526 16.5789C3.81022 16.408 3.72313 16.1762 3.72313 15.9345C3.72313 15.6928 3.81022 15.4611 3.96526 15.2902C4.12029 15.1193 4.33056 15.0233 4.54982 15.0233H7.8417C8.06095 15.0235 8.27114 15.1198 8.42602 15.2908C8.5809 15.4619 8.66778 15.6938 8.66756 15.9354C8.66735 16.1771 8.58004 16.4088 8.42485 16.5795C8.26966 16.7502 8.0593 16.846 7.84005 16.8457H7.8417ZM31.4611 33.9213C31.4198 33.9213 31.3156 33.9126 31.2755 33.9063C26.7167 33.165 22.2604 31.702 21.9388 23.0754H18.449C18.2942 23.0748 18.1427 23.0263 18.0116 22.9355C17.8806 22.8446 17.7754 22.715 17.7079 22.5615C17.6404 22.4079 17.6133 22.2366 17.6299 22.067C17.6464 21.8973 17.7058 21.7362 17.8013 21.6019L23.9841 12.8764C24.0609 12.7678 24.1592 12.68 24.2715 12.6196C24.3838 12.5592 24.5071 12.5278 24.632 12.5278C24.7569 12.5278 24.8802 12.5592 24.9925 12.6196C25.1048 12.68 25.2031 12.7678 25.2799 12.8764L31.4619 21.6019C31.5574 21.7362 31.6168 21.8973 31.6333 22.067C31.6498 22.2366 31.6228 22.4079 31.5553 22.5615C31.4878 22.715 31.3826 22.8446 31.2515 22.9355C31.1205 23.0263 30.969 23.0748 30.8142 23.0754H27.2933C27.1251 27.6894 28.7256 29.4727 32.0183 31.3735C32.2601 31.5134 32.4527 31.7384 32.5653 32.0127C32.678 32.287 32.7043 32.5949 32.6401 32.8876C32.5759 33.1802 32.4249 33.4409 32.211 33.6281C31.9971 33.8154 31.7326 33.9186 31.4594 33.9213H31.4611ZM20.1408 21.2529H22.7449C22.963 21.2533 23.1722 21.349 23.3264 21.519C23.4807 21.689 23.5675 21.9196 23.5678 22.16C23.5931 28.7209 25.8962 30.7138 29.1893 31.6209C26.6448 29.6358 25.3266 27.0474 25.7011 22.0885C25.7175 21.8612 25.811 21.649 25.9628 21.4942C26.1147 21.3394 26.3139 21.2532 26.5208 21.2529H29.1249L24.6318 14.9153L20.1408 21.2529Z" fill="#322F2F"/>
</svg>
