<svg width="16" height="16" viewBox="0 0 16 16" fill="none" xmlns="http://www.w3.org/2000/svg">
<path d="M8.00017 1.33333C6.68162 1.33333 5.39269 1.72432 4.29636 2.45686C3.20004 3.18941 2.34555 4.2306 1.84097 5.44877C1.33638 6.66695 1.20436 8.00739 1.4616 9.3006C1.71883 10.5938 2.35377 11.7817 3.28612 12.714C4.21847 13.6464 5.40636 14.2813 6.69956 14.5386C7.99277 14.7958 9.33322 14.6638 10.5514 14.1592C11.7696 13.6546 12.8108 12.8001 13.5433 11.7038C14.2758 10.6075 14.6668 9.31854 14.6668 7.99999C14.6668 7.12452 14.4944 6.25761 14.1594 5.44877C13.8243 4.63993 13.3333 3.90501 12.7142 3.28595C12.0952 2.66689 11.3602 2.17583 10.5514 1.8408C9.74255 1.50577 8.87565 1.33333 8.00017 1.33333ZM8.00017 13.3333C6.94533 13.3333 5.91419 13.0205 5.03712 12.4345C4.16006 11.8485 3.47648 11.0155 3.07281 10.041C2.66914 9.06643 2.56352 7.99408 2.76931 6.95951C2.9751 5.92495 3.48305 4.97464 4.22893 4.22876C4.97481 3.48288 5.92512 2.97493 6.95968 2.76914C7.99425 2.56335 9.06661 2.66897 10.0411 3.07264C11.0157 3.4763 11.8486 4.15989 12.4347 5.03695C13.0207 5.91402 13.3335 6.94516 13.3335 7.99999C13.3335 9.41448 12.7716 10.771 11.7714 11.7712C10.7712 12.7714 9.41465 13.3333 8.00017 13.3333Z" fill="#DD2828"/>
<path d="M8.00016 11.3333C8.36835 11.3333 8.66683 11.0349 8.66683 10.6667C8.66683 10.2985 8.36835 10 8.00016 10C7.63197 10 7.3335 10.2985 7.3335 10.6667C7.3335 11.0349 7.63197 11.3333 8.00016 11.3333Z" fill="#DD2828"/>
<path d="M8.00016 4.66667C7.82335 4.66667 7.65378 4.73691 7.52876 4.86193C7.40373 4.98696 7.3335 5.15653 7.3335 5.33334V8.66667C7.3335 8.84348 7.40373 9.01305 7.52876 9.13808C7.65378 9.2631 7.82335 9.33334 8.00016 9.33334C8.17697 9.33334 8.34654 9.2631 8.47157 9.13808C8.59659 9.01305 8.66683 8.84348 8.66683 8.66667V5.33334C8.66683 5.15653 8.59659 4.98696 8.47157 4.86193C8.34654 4.73691 8.17697 4.66667 8.00016 4.66667Z" fill="#DD2828"/>
</svg>
